<svg width="806.048" height="339.688" viewBox="0 0 213.267 89.876" xmlns="http://www.w3.org/2000/svg"><g style="fill:#fff;stroke:#fff;stroke-opacity:1"><path style="opacity:1;fill:#fff;fill-opacity:1;stroke:#fff;stroke-width:.264583px;stroke-linecap:butt;stroke-linejoin:miter;stroke-opacity:1" d="m62.982 13.626-.161-.652s.048-.236-.217-.488a1.323 1.323 0 0 0-.837-.366c-.254-.012-.58.19-.58.19l-.217.218s-2.969 2.962-4.71 3.78c-1.707.801-1.831.69-2.649.693-.84-.092-1.241-.305-1.798-.294-.537.01-1.17.297-1.17.297s-3.368 1.22-5.265 2.358c-1.237.743-2.375 1.408-3.263 2.16-.888.75-1.721 1.66-2.09 2.24-.369.58-.568.855-.568.855s-3.282 5.773-5.47 8.139c2.351-.24 6.236-2.457 6.236-2.457s-6.167 10.023-5.762 15.128c0 0 .611-1.385 1.233-1.78 0 0-4.22 9.277-4.624 14.49-.406 5.211-.02 6.603.243 7.826.263 1.224 1.226 3.291 1.226 3.291s.17.31 0 .816c-.171.506-.979 4.283-1.024 6.85-.046 2.567.087 5.82.412 7.232.325 1.41 1.906 7.995 6.777 11.55 4.799 3.502 7.454 3.965 12.653 4.815 0 0-3.318-1.366-3.296-3.035 0 0 4.103 2.193 12.599 3.92 7.078 1.44 9.337-2.311 9.337-2.311s-5.365.106-7.99-1.403c0 0-.772-3.702-4.412-7.838-3.64-4.137-8.398-6.715-9.835-7.32l1.72-.816s-4.6-1.098-7.156-3.264c-2.556-2.165-3.104-2.933-3.803-4.767 0 0 5.483.54 10.524-2.261l9.968-.046s-.31-2.208-5.201-3.358c0 0 2.996-3.221 2.922-7.768-.074-4.548-1.106-8.628-1.461-9.576-.355-.947-1.302-3.534-1.302-3.534s1.144 1.254 1.362 1.463c0 0-1.23-1.854-1.99-5.514 0 0-1.227-4.683-1.063-7.212.164-2.529.591-3.665.591-3.665s1.662-1.947 2.278-3.044c.615-1.097 1.367-2.365 1.734-3.283.366-.919.615-1.908.654-2.285.039-.378.038-.844.432-1.365.394-.52 1.018-1.341 1.61-1.675.667-.377 1.531-.842 2.011-1.097.627-.333 2.141-1.415 2.48-1.994.34-.58.549-.86-.103-2.153-.651-1.293-.985-1.69-.985-1.69z" transform="translate(-30.762 -11.987)"/><path style="fill:#fff;fill-opacity:1;stroke:#fff;stroke-width:.323943px;stroke-linecap:butt;stroke-linejoin:miter;stroke-opacity:1" d="M230.745 90.974c.066-3.703-.886-6.69-3.252-8.11-2.366-1.421-7.116 1.976-8.756 3.256-1.639 1.28-1.05 3.498-1.357 5.803-.307 2.305-2.68 4.442-3.806 5.466-1.127 1.024-1.434 1.152-.512 2.817.922 1.665 1.946 1.152 2.97 1.28 1.025.128 1.025-.128 2.767-1.536 1.741-1.409 4.202.025 6.968-1.64 2.766-1.664 4.167-3.176 4.167-3.176s-.557.06-.81-.182c1.59-1.304 1.621-3.978 1.621-3.978z" transform="translate(-30.762 -11.987)"/><path d="m75.5 51.915 4.76-.043v-7.54l-.48.095-1.798 5.536-.637.474-1.702.004zM81.822 36.713s1.999-2.277 1.587-3.303c0 0-1.353-.185-1.359-1.371-.005-1.187.286-1.297.71-1.552.422-.255.817-.132 1.136.078.32.21.592.48.656 1.32.064.838.092 1.784-.402 2.732-.406.78-.949 1.66-2.328 2.096zM89.89 49.803l1.895 2.09h-6.123l-.167-.358 1.947-1.732 4.307-28.087s.11-1.011.578-1.079c.467-.068 1.6.013 1.6.013s.478-.14.591.714c.113.854 4.562 28.06 4.562 28.06l2.034 2.46-7.376.013 1.843-2.126-2.988-17.729z" style="fill:#fff;fill-opacity:1;stroke:#fff;stroke-width:.264583px;stroke-linecap:butt;stroke-linejoin:miter;stroke-opacity:1" transform="translate(-30.762 -11.987)"/><path d="m95.227 42.348-4.923.07-.441 2.324 5.54-.135z" style="fill:#fff;fill-opacity:1;stroke:#fff;stroke-width:.264583px;stroke-linecap:butt;stroke-linejoin:miter;stroke-opacity:1" transform="translate(-30.762 -11.987)"/><g style="fill:#fff;stroke:#fff;stroke-opacity:1"><path d="m131.18 116.512 1.643 1.629h-5.307l-.162-.37 1.574-1.25 3.864-24.532s.095-.876.5-.935c.405-.058 1.387.011 1.387.011s.414-.12.512.62c.098.74 4.044 24.457 4.044 24.457l1.672 1.99-6.392.011 1.59-1.644-2.582-15.561z" style="fill:#fff;fill-opacity:1;stroke:#fff;stroke-width:.229284px;stroke-linecap:butt;stroke-linejoin:miter;stroke-opacity:1" transform="translate(-44.981 -78.217)"/><path d="m135.806 109.869-4.267.06-.382 2.015 4.8-.118z" style="fill:#fff;fill-opacity:1;stroke:#fff;stroke-width:.229284px;stroke-linecap:butt;stroke-linejoin:miter;stroke-opacity:1" transform="translate(-44.981 -78.217)"/></g><g style="fill:#fff;stroke:#fff;stroke-opacity:1"><path style="fill:#fff;fill-opacity:1;stroke:#fff;stroke-width:.332904px;stroke-linecap:butt;stroke-linejoin:miter;stroke-opacity:1" d="m187.715 91.092-.496.619 1.91 1.364.048 23.146-1.849 1.885 4.963-.01-.027-27.005z" transform="translate(-44.981 -78.217)"/><path style="fill:#fff;fill-opacity:1;stroke:#fff;stroke-width:.264583px;stroke-linecap:butt;stroke-linejoin:miter;stroke-opacity:1" d="M191.696 91.056h2.08l-2.047 2.843zM192.402 116.626l1.678 1.125-.231.372-1.58.008z" transform="translate(-44.981 -78.217)"/></g><path d="m155.236 24.863-.373.62 1.434 1.366.035 23.187-1.387 1.888 3.724-.009-.02-27.054z" style="fill:#fff;fill-opacity:1;stroke:#fff;stroke-width:.288609px;stroke-linecap:butt;stroke-linejoin:miter;stroke-opacity:1" transform="translate(-30.762 -11.987)"/><g style="fill:#fff;stroke:#fff;stroke-opacity:1"><path d="M191.696 91.056h2.08l-2.047 2.843zM192.402 116.626l1.678 1.125-.231.372-1.58.008z" style="fill:#fff;fill-opacity:1;stroke:#fff;stroke-width:.264583px;stroke-linecap:butt;stroke-linejoin:miter;stroke-opacity:1" transform="translate(-76.165 -78.217)"/></g><path d="m72.045 31.138-.382.476 1.47 1.05.037 17.811-1.423 1.45 3.82-.006-.021-20.782z" style="fill:#fff;fill-opacity:1;stroke:#fff;stroke-width:.256179px;stroke-linecap:butt;stroke-linejoin:miter;stroke-opacity:1" transform="translate(-30.762 -11.987)"/><path d="M75.108 31.11h1.6l-1.574 2.188zM75.651 50.787l1.292.866-.178.286-1.215.006z" style="fill:#fff;fill-opacity:1;stroke:#fff;stroke-width:.203604px;stroke-linecap:butt;stroke-linejoin:miter;stroke-opacity:1" transform="translate(-30.762 -11.987)"/><g style="fill:#fff;stroke:#fff;stroke-opacity:1"><path transform="translate(-76.165 -78.217)" style="fill:#fff;fill-opacity:1;stroke:#fff;stroke-width:.332904px;stroke-linecap:butt;stroke-linejoin:miter;stroke-opacity:1" d="m187.715 91.092-.496.619 1.91 1.364.048 23.146-1.849 1.885 4.963-.01-.027-27.005z"/><path d="m161.088 118.104 6.095-.035.001-9.13-.581.116-2.178 6.703-.77.573-2.394-.011z" style="fill:#fff;fill-opacity:1;stroke:#fff;stroke-width:.32034px;stroke-linecap:butt;stroke-linejoin:miter;stroke-opacity:1" transform="translate(-44.981 -78.217)"/><path style="fill:#fff;fill-opacity:1;stroke:#fff;stroke-width:.320339px;stroke-linecap:butt;stroke-linejoin:miter;stroke-opacity:1" d="m161.088 91.085 6.095.035.001 9.13-.581-.116-2.178-6.703-.77-.573-2.394.012z" transform="translate(-44.981 -78.217)"/><path style="fill:#fff;fill-opacity:1;stroke:#fff;stroke-width:.264583px;stroke-linecap:butt;stroke-linejoin:miter;stroke-opacity:1" d="M160.867 103.287h1.223l2.067-2.63v7.442l-2.034-2.828h-1.405z" transform="translate(-44.981 -78.217)"/></g><path d="m181.585 24.863-.496.618 1.91 1.364.048 23.147-1.849 1.884 4.963-.009-.027-27.006z" style="fill:#fff;fill-opacity:1;stroke:#fff;stroke-width:.332904px;stroke-linecap:butt;stroke-linejoin:miter;stroke-opacity:1" transform="translate(-30.762 -11.987)"/><path style="fill:#fff;fill-opacity:1;stroke:#fff;stroke-width:.32034px;stroke-linecap:butt;stroke-linejoin:miter;stroke-opacity:1" d="m186.143 51.875 6.095-.035v-9.13l-.581.116-2.177 6.703-.77.573-2.395-.012z" transform="translate(-30.762 -11.987)"/><path d="m186.143 24.856 6.095.035v9.13l-.581-.116-2.177-6.703-.77-.573-2.395.011z" style="fill:#fff;fill-opacity:1;stroke:#fff;stroke-width:.320339px;stroke-linecap:butt;stroke-linejoin:miter;stroke-opacity:1" transform="translate(-30.762 -11.987)"/><path d="M185.92 37.057h1.225l2.067-2.629v7.441l-2.034-2.827h-1.406z" style="fill:#fff;fill-opacity:1;stroke:#fff;stroke-width:.264583px;stroke-linecap:butt;stroke-linejoin:miter;stroke-opacity:1" transform="translate(-30.762 -11.987)"/><g style="fill:#fff;stroke:#fff;stroke-opacity:1"><path style="fill:#fff;fill-opacity:1;stroke:#fff;stroke-width:.332904px;stroke-linecap:butt;stroke-linejoin:miter;stroke-opacity:1" d="m189.54 91.09-1.105.62.695 1.365.047 23.146-1.849 1.885 4.963-.01-.027-27.006z" transform="translate(-52.882 -78.217)"/><path style="fill:#fff;fill-opacity:1;stroke:#fff;stroke-width:.264583px;stroke-linecap:butt;stroke-linejoin:miter;stroke-opacity:1" d="M191.696 91.056h2.08l-2.047 2.843zM192.402 116.626l1.678 1.125-.231.372-1.58.008z" transform="translate(-52.882 -78.217)"/></g><path style="fill:#fff;fill-opacity:1;stroke:#fff;stroke-width:.229378px;stroke-linecap:butt;stroke-linejoin:miter;stroke-opacity:1" d="M158.222 24.827h.952l-.927 2.847zM158.752 50.442l1.259 1.127-.174.373-1.185.008z" transform="translate(-30.762 -11.987)"/><path style="fill:#fff;fill-opacity:1;stroke:#fff;stroke-width:.229284px;stroke-linecap:butt;stroke-linejoin:miter;stroke-opacity:1" d="M165.64 26.442s.104-1.618.568-1.628c.464-.01 3.096 0 3.096 0l.163.369-1.575 1.25-3.863 24.533s-.095.875-.5.934c-.405.059-1.387-.01-1.387-.01s-.415.12-.513-.62c-.098-.74-4.043-24.457-4.043-24.457l-1.672-1.99s2.894 0 3.742-.004c.847-.004 1.06 1.636 1.06 1.636l2.582 15.562z" transform="translate(-30.762 -11.987)"/><path d="m146.14 23.55.35.444 5.987-2.034.234-.398-1.005-1.24s-.468-.444-1.076.024c-.608.468-4.49 3.204-4.49 3.204z" style="fill:#fff;fill-opacity:1;stroke:#fff;stroke-width:.264583px;stroke-linecap:butt;stroke-linejoin:miter;stroke-opacity:1" transform="translate(-30.762 -11.987)"/><g style="fill:#fff;stroke:#fff;stroke-opacity:1"><path transform="translate(-102.177 -42.072)" style="fill:#fff;fill-opacity:1;stroke:#fff;stroke-width:.332904px;stroke-linecap:butt;stroke-linejoin:miter;stroke-opacity:1" d="m187.715 91.092-.496.619 1.91 1.364.048 23.146-1.849 1.885 4.963-.01-.027-27.005z"/><path d="m161.088 118.104 6.095-.035.001-9.13-.581.116-2.178 6.703-.77.573-2.394-.011z" style="fill:#fff;fill-opacity:1;stroke:#fff;stroke-width:.32034px;stroke-linecap:butt;stroke-linejoin:miter;stroke-opacity:1" transform="translate(-70.993 -42.072)"/><path style="fill:#fff;fill-opacity:1;stroke:#fff;stroke-width:.320339px;stroke-linecap:butt;stroke-linejoin:miter;stroke-opacity:1" d="m161.088 91.085 6.095.035.001 9.13-.581-.116-2.178-6.703-.77-.573-2.394.012z" transform="translate(-70.993 -42.072)"/><path style="fill:#fff;fill-opacity:1;stroke:#fff;stroke-width:.264583px;stroke-linecap:butt;stroke-linejoin:miter;stroke-opacity:1" d="M160.867 103.287h1.223l2.067-2.63v7.442l-2.034-2.828h-1.405z" transform="translate(-70.993 -42.072)"/></g><path style="fill:#fff;fill-opacity:1;stroke:#fff;stroke-width:.229284px;stroke-linecap:butt;stroke-linejoin:miter;stroke-opacity:1" d="m146.317 86.436 1.643 1.629-5.306-.001-.163-.369 1.575-1.25 3.863-24.532s.095-.876.5-.935c.405-.059 1.387.01 1.387.01s.415-.12.513.62c.098.74 4.043 24.458 4.043 24.458l1.672 1.99-6.391.01 1.589-1.643-2.582-15.562z" transform="translate(-30.762 -11.987)"/><path style="fill:#fff;fill-opacity:1;stroke:#fff;stroke-width:.229284px;stroke-linecap:butt;stroke-linejoin:miter;stroke-opacity:1" d="m150.943 79.792-4.267.06-.382 2.015 4.801-.117z" transform="translate(-30.762 -11.987)"/><g style="fill:#fff;stroke:#fff;stroke-opacity:1"><g style="fill:#fff;stroke:#fff;stroke-opacity:1"><path transform="translate(-43.876 -109.978)" d="m142.516 158.99-.373.62 1.434 1.366.035 23.187-1.387 1.888 3.724-.01-.02-27.053z" style="fill:#fff;fill-opacity:1;stroke:#fff;stroke-width:.28861px;stroke-linecap:butt;stroke-linejoin:miter;stroke-opacity:1"/><path style="fill:#fff;fill-opacity:1;stroke:#fff;stroke-width:.229378px;stroke-linecap:butt;stroke-linejoin:miter;stroke-opacity:1" d="M172.441 91.057h.952l-.927 2.847zM172.97 116.672l1.26 1.126-.174.373-1.185.008z" transform="translate(-70.815 -42.081)"/><path style="fill:#fff;fill-opacity:1;stroke:#fff;stroke-width:.229284px;stroke-linecap:butt;stroke-linejoin:miter;stroke-opacity:1" d="M178.171 91.048h2.322l-.327 26.194s-.096.876-.5.934c-.406.06-1.388-.01-1.388-.01s-.356-.054-.512-.62c-.015-.052-5.961-24.504-5.961-24.504l-1.672-1.99s2.894 0 3.741-.004c.848-.004 1.061 1.637 1.061 1.637l3.236 15.748z" transform="translate(-70.815 -42.081)"/><g style="fill:#fff;stroke:#fff;stroke-opacity:1"><path d="m160.8 116.377.036 1.2-1.387 1.888 3.724-.009-.02-3.079z" style="fill:#fff;fill-opacity:1;stroke:#fff;stroke-width:.28861px;stroke-linecap:butt;stroke-linejoin:miter;stroke-opacity:1" transform="matrix(.94902 0 0 -1.0027 -45.217 168.785)"/><path style="fill:#fff;fill-opacity:1;stroke:#fff;stroke-width:.229378px;stroke-linecap:butt;stroke-linejoin:miter;stroke-opacity:1" d="m163.256 117.983 1.259 1.127-.174.373-1.185.008z" transform="matrix(.94902 0 0 -1.0027 -45.217 168.785)"/></g></g></g><g style="fill:#fff;stroke:#fff;stroke-opacity:1"><path d="m75.623 134.136 1.112 1.51.027 19.068h1.75l-.015-20.58z" style="fill:#fff;fill-opacity:1;stroke:#fff;stroke-width:.217878px;stroke-linecap:butt;stroke-linejoin:miter;stroke-opacity:1" transform="matrix(1.09615 0 0 1.02983 -42.503 -83.283)"/><path d="m78.575 153.594.943.857-.13.283-.888.006z" style="fill:#fff;fill-opacity:1;stroke:#fff;stroke-width:.173164px;stroke-linecap:butt;stroke-linejoin:miter;stroke-opacity:1" transform="matrix(1.09615 0 0 1.02983 -42.503 -83.283)"/></g><path d="m112.677 34.114-.006-9.312-.511.001-1.182 1.002s-.485.174-.85-.17c-.366-.346-1.609-1.157-2.992-.802-1.383.356-2.455.886-3.617 3.622-1.162 2.736-1.032 9.507-1.034 11.892-.002 2.386.582 7.102 1.47 8.785.888 1.683 2.22 2.525 2.915 2.74.694.215 3.396.385 4.441-1.634 1.046-2.02 1.251-5.022 1.245-5.796-.005-.81-.035-1.34-.082-1.371-.048-.032-.546-.039-.6.004-.06.046-.027.626-.158 1.926-.165 1.58-.979 3.24-1.32 3.841-.342.602-1.447 2.315-3.262.463-1.815-1.852-1.21-15.653-1.123-17.403.087-1.75.28-3.716.845-4.563.564-.847 1.413-1.052 2.118-.66.704.393 1.617 1.59 2.071 2.968.454 1.378.904 3.067.981 4.48.14-.007.617-.013.617-.013z" style="fill:#fff;fill-opacity:1;stroke:#fff;stroke-width:.263467px;stroke-linecap:butt;stroke-linejoin:miter;stroke-opacity:1" transform="translate(-30.762 -11.987)"/><g style="fill:#fff;stroke:#fff;stroke-opacity:1"><path d="m187.715 91.092-.496.619 1.91 1.364.048 23.146-1.849 1.885 4.963-.01-.027-27.005z" style="fill:#fff;fill-opacity:1;stroke:#fff;stroke-width:.332904px;stroke-linecap:butt;stroke-linejoin:miter;stroke-opacity:1" transform="translate(-90.32 -78.217)"/><path d="M191.696 91.056h2.08l-2.047 2.843zM192.402 116.626l1.678 1.125-.231.372-1.58.008z" style="fill:#fff;fill-opacity:1;stroke:#fff;stroke-width:.264583px;stroke-linecap:butt;stroke-linejoin:miter;stroke-opacity:1" transform="translate(-90.32 -78.217)"/></g><path d="m129.743 34.196.006-9.312h.512l1.181 1.002s.486.175.85-.17c.366-.345 1.61-1.157 2.992-.801 1.384.355 2.455.885 3.617 3.621 1.162 2.736 1.032 9.507 1.034 11.893.002 2.385-.582 7.102-1.47 8.785-.888 1.683-2.21 2.463-2.906 2.678-.753-.057-3.395.385-4.441-1.634-1.046-2.02-1.26-4.96-1.254-5.734.006-.81.035-1.34.083-1.372.047-.032.545-.038.6.004.06.047.026.626.158 1.926.164 1.581.978 3.24 1.32 3.842.341.602 1.446 2.315 3.261.463 1.816-1.852 1.21-15.653 1.123-17.403-.087-1.75-.28-3.717-.844-4.564-.565-.846-1.413-1.051-2.118-.659-.705.392-1.618 1.59-2.072 2.968-.454 1.378-.903 3.066-.98 4.479-.14-.006-.652-.012-.652-.012z" style="fill:#fff;fill-opacity:1;stroke:#fff;stroke-width:.263467px;stroke-linecap:butt;stroke-linejoin:miter;stroke-opacity:1" transform="translate(-30.762 -11.987)"/><g style="fill:#fff;stroke:#fff;stroke-opacity:1"><path style="fill:#fff;fill-opacity:1;stroke:#fff;stroke-width:.332904px;stroke-linecap:butt;stroke-linejoin:miter;stroke-opacity:1" d="m187.715 91.092-.496.619 1.91 1.364.048 23.146-1.849 1.885 4.963-.01-.027-27.005z" transform="translate(-46.756 -42.072)"/><path style="fill:#fff;fill-opacity:1;stroke:#fff;stroke-width:.264583px;stroke-linecap:butt;stroke-linejoin:miter;stroke-opacity:1" d="M191.696 91.056h2.08l-2.047 2.843zM192.402 116.626l1.678 1.125-.231.372-1.58.008z" transform="translate(-46.756 -42.072)"/></g><path style="fill:#fff;fill-opacity:1;stroke:#fff;stroke-width:.263467px;stroke-linecap:butt;stroke-linejoin:miter;stroke-opacity:1" d="m173.308 70.34.006-9.312.511.001 1.182 1.002s.486.174.85-.17c.366-.346 1.609-1.157 2.992-.802 1.383.356 2.455.886 3.617 3.622 1.162 2.736 1.032 9.507 1.034 11.892.002 2.386-.582 7.102-1.47 8.786-.888 1.683-2.211 2.463-2.906 2.678-.753-.058-3.396.385-4.441-1.634-1.046-2.02-1.26-4.96-1.254-5.735.006-.81.035-1.34.083-1.371.047-.032.545-.038.6.004.06.047.026.626.157 1.926.165 1.581.98 3.24 1.32 3.841.342.603 1.447 2.316 3.262.464 1.816-1.853 1.21-15.654 1.123-17.404-.087-1.75-.28-3.716-.845-4.563-.564-.847-1.413-1.051-2.117-.66-.705.393-1.618 1.59-2.072 2.968-.454 1.379-.903 3.067-.981 4.48-.139-.006-.651-.013-.651-.013z" transform="translate(-30.762 -11.987)"/><g style="fill:#fff;stroke:#fff;stroke-opacity:1"><g style="fill:#fff;stroke:#fff;stroke-opacity:1"><path d="m187.715 91.092-.496.619 1.91 1.364.048 23.146-1.849 1.885 4.963-.01-.027-27.006z" style="fill:#fff;fill-opacity:1;stroke:#fff;stroke-width:.332904px;stroke-linecap:butt;stroke-linejoin:miter;stroke-opacity:1" transform="matrix(.92873 0 0 1.00051 -47.597 -42.126)"/><path d="M191.696 91.056h2.08l-2.047 2.843zM192.402 116.626l1.678 1.125-.231.372-1.58.008z" style="fill:#fff;fill-opacity:1;stroke:#fff;stroke-width:.264583px;stroke-linecap:butt;stroke-linejoin:miter;stroke-opacity:1" transform="matrix(.92873 0 0 1.00051 -47.597 -42.126)"/></g><path style="fill:#fff;fill-opacity:1;stroke:#fff;stroke-width:.187808px;stroke-linecap:butt;stroke-linejoin:miter;stroke-opacity:1" d="m172.923 131.889.006-4.697h.516l1.19.506s.49.088.857-.086c.368-.174 1.62-.583 3.014-.404 1.393.18 2.473.447 3.644 1.826 1.17 1.38 1.04 4.795 1.041 5.999.002 1.203-.586 3.582-1.48 4.43-.895.85-2.228 1.243-2.928 1.351-.759-.029-3.421.195-4.475-.824-1.053-1.018-1.269-2.502-1.263-2.892.006-.408.036-.676.084-.692.047-.016.55-.019.604.002.06.024.026.316.159.972.166.797.986 1.353 1.33 1.657.344.303 1.457 1.167 3.286.233s1.219-6.842 1.131-7.725c-.087-.883-.282-1.874-.85-2.302-.57-.427-1.471-.343-2.134-.332-.663.01-1.63.03-2.087.725-.458.695-.91 1.547-.989 2.259-.14-.003-.656-.006-.656-.006z" transform="matrix(.92873 0 0 1.00051 -32.175 -78.289)"/></g><path style="fill:#fff;fill-opacity:1;stroke:#fff;stroke-width:.255046px;stroke-linecap:butt;stroke-linejoin:miter;stroke-opacity:1" d="M161.677 75.233s3.91-.561 3.866 3.417c-.044 3.977 0 7.066 0 7.557 0 .491.608 1.82 1.672 1.82h3.193l-1.868-1.885-.022-8.335s-.152-3.85-3.822-3.733l-3.671.117z" transform="translate(-30.762 -11.987)"/><g style="fill:#fff;stroke:#fff;stroke-opacity:1"><g style="fill:#fff;stroke:#fff;stroke-opacity:1"><path style="fill:#fff;fill-opacity:1;stroke:#fff;stroke-width:.332904px;stroke-linecap:butt;stroke-linejoin:miter;stroke-opacity:1" d="m187.715 91.092-.496.619 1.91 1.364.048 23.146-1.849 1.885 4.963-.01-.027-27.006z" transform="matrix(1.08766 0 0 1.1504 -135.57 -59.854)"/><path style="fill:#fff;fill-opacity:1;stroke:#fff;stroke-width:.264583px;stroke-linecap:butt;stroke-linejoin:miter;stroke-opacity:1" d="M191.696 91.056h2.08l-2.047 2.843zM192.402 116.626l1.678 1.125-.231.372-1.58.008z" transform="matrix(1.08766 0 0 1.1504 -135.57 -59.854)"/></g><path d="m172.923 131.889.006-4.697h.516l1.19.506s.49.088.857-.086c.368-.174 1.62-.583 3.014-.404 1.393.18 2.473.447 3.644 1.826 1.17 1.38 1.04 4.795 1.041 5.999.002 1.203-.586 3.582-1.48 4.43-.895.85-2.228 1.243-2.928 1.351-.759-.029-3.421.195-4.475-.824-1.053-1.018-1.269-2.502-1.263-2.892.006-.408.036-.676.084-.692.047-.016.55-.019.604.002.06.024.026.316.159.972.166.797.986 1.353 1.33 1.657.344.303 1.457 1.167 3.286.233s1.219-6.842 1.131-7.725c-.087-.883-.282-1.874-.85-2.302-.57-.427-1.471-.343-2.134-.332-.663.01-1.63.03-2.087.725-.458.695-.91 1.547-.989 2.259-.14-.003-.656-.006-.656-.006z" style="fill:#fff;fill-opacity:1;stroke:#fff;stroke-width:.187808px;stroke-linecap:butt;stroke-linejoin:miter;stroke-opacity:1" transform="matrix(1.08766 0 0 1.1504 -117.51 -101.435)"/></g><path d="M104.25 73.29s4.578-.645 4.528 3.929c-.051 4.573 0 8.124 0 8.69 0 .564.712 2.093 1.958 2.093h3.74l-2.188-2.168-.026-9.584s-.178-4.427-4.476-4.292l-4.3.134z" style="fill:#fff;fill-opacity:1;stroke:#fff;stroke-width:.295959px;stroke-linecap:butt;stroke-linejoin:miter;stroke-opacity:1" transform="translate(-30.762 -11.987)"/><g style="fill:#fff;stroke:#fff;stroke-opacity:1"><path d="m208.832 136.513-.006-9.312h-.512l-1.182 1.003-.85-.171-1.154 1.045s1.618 1.59 2.071 2.968c.454 1.378.904 3.066.982 4.479.138-.006.65.011.65.011zM200.665 144.954l.006 9.311h.511l1.182-1.002.85.17 1.155-1.045s-1.618-1.59-2.072-2.967c-.454-1.379-.903-3.067-.981-4.48a6.667 6.667 0 0 0-.651.013z" style="fill:#fff;fill-opacity:1;stroke:#fff;stroke-width:.263467px;stroke-linecap:butt;stroke-linejoin:miter;stroke-opacity:1" transform="translate(-44.981 -78.217)"/><path style="fill:#fff;fill-opacity:1;stroke:#fff;stroke-width:.264583px;stroke-linecap:butt;stroke-linejoin:miter;stroke-opacity:1" d="M203.949 151.983c.547.68 2.558 1.773 2.823-.972.265-2.745-1.72-5.82-2.117-6.548-.397-.728-2.811-5.524-3.142-6.185-.33-.662-1.852-4.73-1.62-7.54.231-2.812 3.505-5.127 6.317-2.779 2.81 2.348 1.572 4.446.751 3.234-.705-1.041-2.24-2.804-3.166-2.34-.926.462-1.819 1.388-.463 4.86 1.356 3.473 3.241 6.384 3.77 7.541.53 1.158 2.58 4.4 2.514 6.714-.066 2.315.302 5.406-2.963 6.15-3.27.744-5.737-2.413-5.737-2.413s2.485-.403 3.033.278z" transform="translate(-44.981 -78.217)"/></g><g style="fill:#fff;stroke:#fff;stroke-opacity:1"><path style="fill:#fff;fill-opacity:1;stroke:#fff;stroke-width:.263467px;stroke-linecap:butt;stroke-linejoin:miter;stroke-opacity:1" d="m208.832 136.513-.006-9.312h-.512l-1.182 1.003-.85-.171-1.154 1.045s1.618 1.59 2.071 2.968c.454 1.378.904 3.066.982 4.479.138-.006.65.011.65.011zM200.665 144.954l.006 9.311h.511l1.182-1.002.85.17 1.155-1.045s-1.618-1.59-2.072-2.967c-.454-1.379-.903-3.067-.981-4.48a6.667 6.667 0 0 0-.651.013z" transform="matrix(.6726 0 0 .58328 -79.875 -13.897)"/><path d="M203.949 151.983c.547.68 2.558 1.773 2.823-.972.265-2.745-1.72-5.82-2.117-6.548-.397-.728-2.811-5.524-3.142-6.185-.33-.662-1.852-4.73-1.62-7.54.231-2.812 3.505-5.127 6.317-2.779 2.81 2.348 1.572 4.446.751 3.234-.705-1.041-2.24-2.804-3.166-2.34-.926.462-1.819 1.388-.463 4.86 1.356 3.473 3.241 6.384 3.77 7.541.53 1.158 2.58 4.4 2.514 6.714-.066 2.315.302 5.406-2.963 6.15-3.27.744-5.737-2.413-5.737-2.413s2.485-.403 3.033.278z" style="fill:#fff;fill-opacity:1;stroke:#fff;stroke-width:.264583px;stroke-linecap:butt;stroke-linejoin:miter;stroke-opacity:1" transform="matrix(.6726 0 0 .58328 -79.875 -13.897)"/></g><path style="fill:#fff;fill-opacity:1;stroke:#fff;stroke-width:.166971px;stroke-linecap:butt;stroke-linejoin:miter;stroke-opacity:1" d="M83.794 78.665s.002-1.54-.058-2.943c-.061-1.401-1.036-2.552-1.506-2.917-.47-.364-1.329-.791-2.281-.584-.952.208-1.69.517-2.49 2.113-.8 1.596-.71 5.547-.711 6.94-.002 1.391.4 4.143 1.012 5.125.61.982 1.528 1.473 2.006 1.599.478.125 2.69.274 3.478-.86.357-.515.48-.895.6-1.345.12-.452.116-1.026.036-1.068a.474.474 0 0 0-.39.026c-.04.028-.064.398-.131.635s-.323.703-.628 1.02c-.294.304-1.534 1.176-2.783.095-1.25-1.08-.927-8.911-.867-9.932.06-1.021.193-2.169.582-2.663.388-.494.727-.497 1.048-.396.321.1.786.927.806 1.907.02.98.056 3.256.056 3.256z" transform="translate(-30.762 -11.987)"/><path d="M78.46 78.519h5.276v1.017H78.46z" style="fill:#fff;fill-opacity:1;stroke:#fff;stroke-width:.264583px;stroke-linecap:butt;stroke-linejoin:miter;stroke-opacity:1" transform="translate(-30.762 -11.987)"/><path d="M73.979 75.723c-.06-1.402-1.035-2.553-1.505-2.918-.47-.364-1.33-.791-2.282-.584-.952.208-1.69.517-2.49 2.113-.8 1.596-.71 5.547-.711 6.94-.001 1.391.4 4.143 1.012 5.125.611.982 1.528 1.473 2.006 1.599.478.125 2.69.274 3.478-.86.358-.515.481-.895.6-1.345.12-.452.14-1.166.06-1.208-1.872-2.264-1.756-.447-1.892.414-.136.86-.814 2.583-2.064 1.502-1.25-1.08-.926-8.911-.866-9.932.06-1.021.193-2.169.581-2.663.388-.494.727-.497 1.048-.396.322.1 1.202.954 1.399 3.253.196 2.299 1.773 2.499 1.626-1.04z" style="fill:#fff;fill-opacity:1;stroke:#fff;stroke-width:.166971px;stroke-linecap:butt;stroke-linejoin:miter;stroke-opacity:1" transform="translate(-30.762 -11.987)"/><path d="M222.658 41.402c-.916-7.78-11.458-9.641-11.458-9.641.922-.342 1.543-.992 1.543-.992-11.981-5.274-14.405-14.595-14.405-14.595-2.607-1.871-8.186-1.42-8.186-1.42 4.14-6.54 21.867 1.209 21.867 1.209.773-1.858-3.254-3.055-3.254-3.055s9.74.289 16.02 7.928c6.281 7.639 3.673 20.275 3.673 20.275zM231.475 88.539s2.339 3.32 2.62 4.584l.14-.749s1.31 1.497 1.45 2.807c.14 1.31 1.684 1.45 1.684 1.45l6.407.046s.09-.277.117-.654c.028-.377-.117-.655-.117-.655s-1.029-1.965-3.367-1.965c-2.339 0-4.537-6.454-4.537-6.454l-1.777-5.894zM219.765 88.54s-2.339 3.32-2.62 4.583l-.14-.749s-1.31 1.497-1.45 2.807c-.14 1.31-1.684 1.45-1.684 1.45l-6.407.046s-.09-.277-.117-.654c-.027-.377.117-.655.117-.655s1.029-1.965 3.367-1.965c2.339 0 4.537-6.454 4.537-6.454l1.778-5.893z" style="fill:#fff;fill-opacity:1;stroke:#fff;stroke-width:.264583px;stroke-linecap:butt;stroke-linejoin:miter;stroke-opacity:1" transform="translate(-30.762 -11.987)"/><path d="M223.477 40.037s-7.67 2.339-9.822 7.484c-2.151 5.144-.561 13.283 2.058 18.802 0 0-.795-.327-1.17-.889 0 0 3.93 17.166 2.527 23.527l17.446.842-.795-13.658s2.057-6.267 1.59-8.138c0 0-.889 1.777-1.497 2.292 0 0 4.35-12.676 1.544-21.843-2.807-9.167-6.97-9.26-7.11-9.074z" style="fill:#fff;fill-opacity:1;stroke:#fff;stroke-width:.264583px;stroke-linecap:butt;stroke-linejoin:miter;stroke-opacity:1" transform="translate(-30.762 -11.987)"/><path d="M227.654 85.414s4.401-1.31 6.432-1.244c1.918.063 7.076-1.815 4.777-.505-2.3 1.311-5.66 9.16-12.905 6.984z" style="fill:#fff;fill-opacity:1;stroke:#fff;stroke-width:.284254px;stroke-linecap:butt;stroke-linejoin:miter;stroke-opacity:1" transform="translate(-30.762 -11.987)"/><path d="M217.898 88.784s-4.547-4.346-4.756-6.984c0 0 .614.608 1.108.875.493.266 8.955 1.47 8.955 1.47z" style="fill:#fff;fill-opacity:1;stroke:#fff;stroke-width:.275843px;stroke-linecap:butt;stroke-linejoin:miter;stroke-opacity:1" transform="translate(-30.762 -11.987)"/></g></svg>