<svg width="115" height="115" fill="none" xmlns="http://www.w3.org/2000/svg"><circle cx="57.5" cy="57.5" r="57.5" fill="url('#paint0_linear')"/><path d="M36.344 92.217V26.895l11.593 2.572c1.705-.857 3.58-1.714 5.626-2.4 2.046-.686 4.262-1.029 6.82-1.029 3.239 0 6.308.686 9.206 1.886 2.898 1.2 5.455 2.915 7.501 5.143 2.216 2.23 3.921 4.63 5.115 7.544 1.193 2.915 1.875 6 1.875 9.258 0 3.258-.682 6.344-1.875 9.259-1.194 2.914-2.898 5.486-5.115 7.543-2.216 2.058-4.603 3.944-7.672 5.144-3.068 1.2-5.967 1.886-9.206 1.886-2.216 0-4.262-.172-6.137-.686-1.876-.514-3.751-1.2-5.285-2.229v21.26H36.344v.171ZM48.96 50.041c0 1.543.341 3.086.853 4.458.511 1.371 1.363 2.571 2.386 3.6 1.023 1.029 2.217 1.886 3.58 2.4 1.364.514 2.899.857 4.433.857 1.534 0 3.069-.343 4.433-.857 1.364-.514 2.557-1.371 3.58-2.4 1.023-1.029 1.875-2.229 2.387-3.6.511-1.372.852-2.915.852-4.458 0-1.543-.34-3.086-.852-4.458-.512-1.371-1.364-2.572-2.387-3.6-1.023-1.029-2.216-1.886-3.58-2.4-1.364-.515-2.898-.858-4.433-.858-1.534 0-3.069.343-4.432.857-1.364.515-2.558 1.372-3.58 2.4-1.024 1.03-1.876 2.23-2.387 3.601-.512 1.372-.853 2.915-.853 4.458Z" fill="#fff"/><defs><linearGradient id="paint0_linear" x1="16.002" y1="14.918" x2="94.929" y2="86.521" gradientUnits="userSpaceOnUse"><stop stop-color="#A0D9ED"/><stop offset="1" stop-color="#349AC0"/></linearGradient></defs></svg>