<svg xmlns="http://www.w3.org/2000/svg" viewBox="0 0 503.91 619.9"><defs><style>.cls-24{fill:#81c5a5}.cls-26{fill:#80c397}.cls-44{fill:#7dbb4b}.cls-47{fill:#ca75ae}.cls-49{fill:#81c49b}.cls-56{fill:#a777b2}.cls-59{fill:#7ebb4c}.cls-80{fill:#f9bf35}.cls-112{fill:#80c28f}.cls-113{fill:#ce74ad}</style></defs><g id="Calque_2" data-name="Calque 2"><g id="Calque_1-2" data-name="Calque 1"><path d="M318.24 419.79 330.48 398c1.5-5 5.51-8.09 8.95-11.6 1.65-1.49 3.06-3.23 4.75-4.67 1.3-.74 2.9-1 3.74-2.47 3.93-2.84 8.24-5.07 12.32-7.68 2-.76 3.85-1.92 5.9-2.61 3.2-1.81 7.05-1.7 10.26-3.48a11.92 11.92 0 0 1 3.78-.74c2.8-.76 5.42-2.3 8.48-2 2.51-.09 5-.08 7.53 0 2 0 3.94-.07 5.91 0a15.66 15.66 0 0 1 5.77.67c2.27 1.64 4.89 1.44 7.48 1.35a38.06 38.06 0 0 1 4.65.23c2.63.73 5.08 2 7.83 2.36 2.44.92 4.45 2.67 6.86 3.66 2.67 1.3 5.29 2.7 8 3.93 3.44 1.88 6.49 4.36 9.77 6.49 2.14 2 3.85 4.45 6.13 6.34a78.09 78.09 0 0 0 6.2 6.14c4 3.05 5.08 8.15 8.19 11.84 3.41 3.49 3.71 8.44 5.9 12.51 2.65 3.72 2 8.55 4.16 12.44 1.07 11.62 1.79 23.23-.32 34.82-2.31 1.72-.93 4.83-2.55 6.81-2.21 7.94-6.74 14.77-10.75 21.81-2.72 4.85-5.24 9.85-9.27 13.85-.93.88-1.46 2.11-2.57 2.83-20.51 19.89-45.36 25.36-72.88 21.93-2-1.45-4.28-1.57-6.63-1.43-4.47.28-8.57-1.39-12.39-3.2-23.68-11.28-40.46-28.67-48.61-54.13a83.2 83.2 0 0 1-3.83-33.76 64.6 64.6 0 0 1 4.11-18.24 8.66 8.66 0 0 1 .89-2.21Z" style="fill:#55af32"/><path d="M1.07 386.19a205.72 205.72 0 0 1-.22-35.88c1.43-1.28.92-3 1-4.57-.55-6.15 2.82-11.19 5.31-16.22a62.11 62.11 0 0 1 10.34-15.59 44.58 44.58 0 0 1 12.82-12.81 43.2 43.2 0 0 0 4.26-3.34c3.91-4.13 9.57-5.18 14.18-8.08 3.13-1.88 6.82-2.36 10-4a12.72 12.72 0 0 1 5.08-.65c1.66.07 3.28 0 4.64-1.15a5.39 5.39 0 0 1 1.41-.56 30.8 30.8 0 0 1 5.59-.39c4.3-.21 8.6 0 12.9 0 2-.07 4-.1 6 0a16.71 16.71 0 0 1 5.63.59c1.51.79 3 1.68 4.82 1.51 2.28-.13 4.15 1.09 6.17 1.85 2.18.12 4 1.19 5.91 2.13 1.52.5 2.7 1.68 4.23 2.14s2.68 1.68 4.24 2.09c1.88 1 3.84 1.8 5.74 2.77a86.91 86.91 0 0 1 14 11.84c10.07 10.85 18 22.86 21.38 37.51.93 4 .25 7.92.61 11.87 1 6.72.25 13.47.48 20.2 1.24 9.32-2.53 17.51-5.84 25.8-.82 1.44-1.93 2.74-2.32 4.41a6.79 6.79 0 0 1-.65 1.22 42 42 0 0 1-9.72 13.79c-2.48 4.27-5.4 8.14-9.83 10.59-3.85 2-6.31 6-10.53 7.41-3 .71-4.84 3.47-7.61 4.63-1.93.87-3.73 2.08-5.94 2.16-1.67.29-2.93 1.62-4.64 1.8-2.74.16-4.93 2.41-7.8 2.13-1.25.05-2.51 0-3.76 0-2.69.14-5.51-.7-8 1.15a6.38 6.38 0 0 1-1.5.58c-4.14.44-8.27.76-12.37-.27-2.48-1.85-5.37-1.42-8.19-1.44a23.23 23.23 0 0 1-11.63-2.07c-10.83-4.89-21.88-9.14-30.49-18.13-8.31-8.68-16.37-17.28-21.3-28.46-2.29-5.35-3.17-10.98-4.4-16.56Z" style="fill:#3870b7"/><path d="M336 93.05c-2.41-28.87 6.44-53.43 28.45-72.62C382.55 4.64 403.81-2.11 427.73.58c32.46 3.65 55.27 20.63 68.68 50.48 4.35 9.67 6 19.69 6.75 30 1 6.82-.51 13.63-.15 20.44-.43 1.69-1.78 3.08-1.69 4.95a7 7 0 0 1-.61 2.06 6.46 6.46 0 0 0-1.34 4.47c-1.77 7.36-5.6 13.7-9.91 19.79-2.49 4.92-7.47 7.67-10.53 12.1-1.64 2.6-4.15 4.29-6.45 6.2a68.52 68.52 0 0 1-12.1 7.89 21 21 0 0 0-4.27 2.24c-2.24 1.52-4.58 2.72-7.39 2.54a6.37 6.37 0 0 0-4.51 1.29 6.6 6.6 0 0 1-2 .57c-2.12.12-4.28 0-6.07 1.51a7.23 7.23 0 0 1-2.19.57c-3.27.4-6.76-.69-9.77 1.48a11.23 11.23 0 0 1-4.06.66 57.9 57.9 0 0 1-7.45-.12 46.38 46.38 0 0 0-9.64-2.45 7.13 7.13 0 0 0-5.9-1.21 28 28 0 0 1-4.91-.67 80.9 80.9 0 0 1-8.29-3.71c-1.85-.83-3.55-2-5.62-2.27-2.51-.79-4.27-2.66-6.19-4.3-1.1-1.12-2.63-1.49-3.95-2.23-2.11-1.92-4-4.07-6.16-6a81.81 81.81 0 0 0-6-6 55.64 55.64 0 0 0-4.31-4.24 144.39 144.39 0 0 1-8.1-12.46c-5.05-9.75-8.91-19.81-7.6-31.11Z" style="fill:#eb5e3f"/><path d="m76.8 451.92 14 .28a3.51 3.51 0 0 1 1.2 2.66c0 7.3 1.48 14.51 1.88 21.71.57 10.47 2.28 20.65 3.85 31a270 270 0 0 0 12.37 48.08 150.67 150.67 0 0 0 7.75 18.86c1 2 2.67 4 .87 6.45-5.74-2.57-10.76-6.37-15.65-10.14-11.86-9.16-23.69-18.46-33.73-29.64a318.65 318.65 0 0 1-28.92-37.38 243.64 243.64 0 0 1-30.34-66.07c-4.91-16.76-8.42-33.92-9-51.51 3.61 1.88 2.24 5.92 3.08 8.69 4.57 15.09 14.07 26.5 25.18 36.95 8.55 8 19 12.61 29.86 16.53a28.52 28.52 0 0 0 9.51 1.75c2.36 2.02 5.67-.14 8.09 1.78Z" style="fill:#80cacc"/><path d="M88.76.6c5 1 10.38-.47 15 2.47 3.29 2.11 1.13 4.26 0 6.28Q90.72 32 77.59 54.67c-16.5 28.27-32.66 56.73-49.17 85-7 11.9-14 23.77-20.47 36a23.48 23.48 0 0 1-4.15 6.19c-1.29 1.19-2.8 2.14-3.41-.78v-29c1.47-4 4.2-7.43 6.36-11.05 6.28-10.54 12.13-21.35 18.47-31.86C31.29 99.08 37 88.76 42.76 78.48c6.64-11.86 14-23.33 20.48-35.25C68.8 33 75.48 23.49 80.47 13c2.16-4.54 5.38-8.37 8.29-12.4Z" style="fill:#7074b6"/><path d="m136.68 19.69 1 1c9.26 7.13 9.13 7.05 3.37 17-25.28 43.94-50.73 87.77-76 131.72C51.88 192.33 38.8 215.29 25.3 238c-6.54 11-12.79 22.17-19.06 33.32-.74 1.32-1.24 2.8-2.53 3.68S1 276.78.39 274.24v-17.52c.64-3.89 3.06-7 5-10.21 7.48-12.72 14.62-25.64 22.08-38.36q12.71-21.68 25.26-43.42c5.79-10.06 11.64-20.09 17.39-30.18C79 119 88 103.52 97 88c8.22-14.21 16.26-28.52 24.69-42.61 5.07-8.5 9.46-17.39 14.99-25.7Z" style="fill:#8d75b3"/><path d="M154.6 39.9c2.86 2.29 3.25 6 5 8.9 1.59 4.12-1.4 7-3.12 9.94-9.73 16.8-19.26 33.72-29.09 50.46-8.24 14-16.46 28.08-24.52 42.21q-13.56 23.79-27.35 47.45c-8.09 13.92-15.85 28-24.17 41.82-7.46 12.35-14.49 25-21.48 37.61C24.82 287.44 19 296.15 14 305.38c-1.95 3.66-4.43 7-6.08 10.86a19.41 19.41 0 0 1-4.32 6.06c-.71.69-1.63 1.41-2.65.87-.81-.42-.59-1.45-.59-2.26 0-5.15-.13-10.31.09-15.46 5.69-9.35 10.94-19 16.53-28.37 7-11.85 13.76-23.88 20.66-35.8 8.9-15.38 18-30.66 26.65-46.14C72.88 180 82 165.1 90.46 149.85c8.29-14.95 17.33-29.47 25.69-44.38 6.08-10.87 12.63-21.47 18.66-32.35 5.63-10.16 11.85-20 17.15-30.34a5.54 5.54 0 0 1 2.64-2.88Z" style="fill:#9d75b2"/><path d="M1 305.22v17.37c3.11-1.34 4.46-4 5.7-6.46 6.42-12.47 14-24.28 21-36.43 4.59-8 9.07-16.1 13.63-24.13 8.07-14.18 17-27.89 24.72-42.23C72.12 202 78.7 191 85.09 179.81c10.1-17.63 20.15-35.27 30.44-52.78 8.11-13.77 16-27.65 24.18-41.41q10-17 19.52-34.4a7.27 7.27 0 0 0 .37-2.42c1.65 2.77 3.23 5.56 3 9a5.41 5.41 0 0 1 1.2 4.05c-7.32 11.51-13.56 23.64-20.51 35.37-13 22-25.44 44.43-38.44 66.48-16 27.2-31.53 54.72-47.49 82-11.51 19.58-23.06 39.22-33.89 59.3-1.65 3.05-5.2 5.19-4.81 9.3A83.16 83.16 0 0 0 9 329.17c-2.61 5.44-6 10.66-6.15 17a1.45 1.45 0 0 1-2 .14c-.22-6.47-.62-12.93-.62-19.4Q.09 204.49.12 82.08c0-1.79-.5-3.66.55-5.36 2.84 3 1.34 6.72 1.67 10.14q.33 19.8 0 39.61c.26 6.29.09 12.58.08 18.87A7.81 7.81 0 0 1 1 150.5v31.95c2.42 3.76 1.09 8 1.39 12 .14 1.95-.22 3.91 0 5.88.17 4.72 0 9.44 0 14.16.3 7 0 13.93.06 20.89-.4 6.62 1.16 13.41-1.45 19.91v20c2.66 4.44.82 9.32 1.36 14-.17 5.33.96 10.78-1.36 15.93Z" style="fill:#a275b1"/><path d="M160.62 404.09c.48-5.44 3.22-10.23 4.79-15.33 1.1-3.58.75-7 1.4-10.43.55-.75 1.09-.75 1.64 0 .27 7.61 3.27 14.57 5.23 21.78-1.61 6.93-2.6 14-3.93 20.94-3.59 18.83-1.74 37.79-1.36 56.62a91.45 91.45 0 0 0 4.86 28.73c2.37 6.62 3.13 13.77 5.32 20.56 4.09 12.67 9.9 24.55 16 36.33a195 195 0 0 0 19.19 29.53c5.46 7.07 10.67 14.32 16.92 20.74 1.38 1.42 2.64 3.08 5 2.86 1.11 0 2.21.06 3.31.16 4.19.95 8.46.79 12.71.82a91.08 91.08 0 0 1 10.58.18 3.48 3.48 0 0 1 2.33 1.26c-6.81 1.77-13.75.8-20.61.69a151 151 0 0 1-25.49-2.53c-4.86-2.46-8.35-6.57-11.52-10.7-16.07-20.92-29.61-43.24-38.58-68.27-8.77-24.48-14-49.47-14.19-75.52-.13-17.32.09-34.58 3.41-51.65a5.64 5.64 0 0 1 1-2.77c1.37-.95.67-2.99 1.99-4Z" style="fill:#81c59f"/><path d="M1 255.29v-20c5.69-10.88 12-21.42 18.09-32.06s12.43-21.17 18.53-31.81c8.84-15.39 17.76-30.73 26.6-46.12 8.43-14.68 17.07-29.24 25.43-44 8.78-15.43 17.62-30.82 26.66-46.1 4.22-7.13 8.17-14.42 12.36-21.57 3.14 1.36 6 3.09 8 6-.28 5.76-4.59 9.63-7.06 14.29C122.2 48 113.79 61.53 106 75.37q-10.67 18.86-21.65 37.56c-7.46 12.72-14.76 25.53-22.19 38.26-5.36 9.18-10.43 18.51-15.81 27.67-7.38 12.57-14.66 25.19-22 37.82-6.88 11.9-13.6 23.93-20.88 35.61-.65 1.11-1.07 2.46-2.47 3Z" style="fill:#8675b4"/><path d="M128.69 13.71c.18 6-4.52 9.75-7.09 14.38-9.13 16.36-19.21 32.19-28.11 48.66-6.1 11.28-12.92 22.12-19 33.38-7.12 13.13-14.79 26-22.23 38.91-9.89 17.2-19.49 34.61-29.84 51.52C15.29 212.15 10.18 225 1 235.33V214.4c12.35-21.46 24.8-42.86 37.13-64.32 11.42-19.89 22.75-39.83 34.22-59.69Q93 54.78 113.6 19.21c2-3.45 3.7-7.08 6.09-10.29 3.66.36 6.25 2.72 9 4.79Z" style="fill:#8175b5"/><path d="M1 305.22v-16c4.58-9.61 10.5-18.46 15.74-27.69 8.94-15.75 18.12-31.37 27.15-47.06 12.69-22 25.49-44 38.13-66.05q21.81-38.05 44-75.92c6.85-11.78 13.46-23.69 20.31-35.47.9-1.55 1.65-3.3 3.34-4.26 2.6 1.7 3.35 4.71 5 7.1-7.28 15.32-16.41 29.6-24.88 44.25-6.49 11.24-12.6 22.7-19.26 33.84-10.47 17.49-20.23 35.38-30.55 53-10.23 17.28-19.98 34.82-30.14 52.11s-19.61 34.65-29.92 51.65c-6.19 10.22-10.76 21.5-18.92 30.5Z" style="fill:#9675b3"/><path d="M394.23 574.86c-6.3 4.59-12.78 8.88-20 12-11-.27-21.19-4.12-31.06-8.29-16.13-6.82-31.13-15.69-43.5-28.4a141.06 141.06 0 0 1-29.86-45.44c-4.72-11.51-6.91-23.48-9.29-35.49-.65-3.28-.34-6.62-.35-9.94 0-6.93 0-6.93 6.26-8.38l11-2.64c-3 9.43-1.36 18.87-.22 28.36s4.47 18.35 8.49 26.9c5 10.67 10.93 20.79 19.09 29.49C316 545 328.1 555.64 343.27 562.44c11.53 5.17 23.31 9 36 10.47 4.95.57 10.03.92 14.96 1.95Z" style="fill:#7fbd5d"/><path d="M1 126.54V86.6c5-6.22 8.7-13.25 12.43-20.25C16.55 60.5 20.26 55 23.48 49.22c5.86-10.55 11.66-21.16 18.25-31.3a19.71 19.71 0 0 0 2.72-7.42c5.3-4.26 11.83-5.61 18.1-7.5a58.41 58.41 0 0 1 6.19-1.23C70.49 1.06 72.6.51 73.8 2c1.49 1.84-.17 3.8-1.13 5.46-11.13 19.07-22.08 38.25-33.11 57.38-11.21 19.42-22.48 38.8-33.63 58.25-1.02 1.79-1.55 4.79-4.93 3.45Z" style="fill:#6074b7"/><path d="m243.38 452.11 16.1.11c-.13 1.88-1.71 2-2.91 2-4.24-.13-4.7 2.36-4.78 5.79-.49 19 4.22 36.73 12.15 53.79a176.54 176.54 0 0 0 16.36 28.46c4.09 5.69 9.67 10 14.48 15.09 15.84 16.61 35.31 27.22 56.82 34.53 3.16 1.08 6.75-.42 9.58 1.93-6.37 4.22-13.54 6.62-20.68 9.11-8.57-1.77-15.8-6.59-23.43-10.47-17.28-8.79-31.48-21.56-44.11-36-9.67-11-16.54-24-22.8-37.25-9.23-19.56-13.08-40.31-13.87-61.72-.23-6.15.54-6.48 7.09-5.37Z" style="fill:#7fbe6b"/><path d="M488.19 132.55c3.52-5 6.18-10.4 8.9-15.83a10.06 10.06 0 0 0 1.05-4.13c1.36-1 .65-3 1.95-4l.06-2c1.33-1 .67-3 1.88-4.06-.45-7.19 1-14.28 1.13-21.44 1.22 1.27.59 2.85.59 4.26q.15 141.93.16 283.87c0 5-1.05 10.1-1.6 15.16-2-1.74-1.68-4.15-1.76-6.39-.22-6.55.21-13.1.07-19.65-.34-8.71.21-17.41 0-26.12-.23-12.3.06-24.6 0-36.9-.2-14.28 0-28.56.07-42.84-.42-9.66.12-19.32-.05-29-.28-8 .11-16 0-24-.11-12.33-.15-24.66.09-37 .09-12-.11-23.91.12-35.72-3.49 8-4.4 16.93-7.09 25.36-4.32 13.6-7.37 27.55-11.11 41.3-3.79 13.91-7.42 27.88-11.2 41.8-3.18 11.68-5.94 23.46-9.25 35.1-4.41 15.47-8 31.16-12.65 46.56-3.95 13.19-6.31 26.81-10.87 39.83-1.75 5-1.78 10.46-4.43 15.17-1.89-1.38-4.57-1.34-6.12-3.35-2.72-5.15.51-9.8 1.74-14.34 4.5-16.63 8.47-33.41 13.38-49.91 3.83-12.88 6.84-26 10.53-38.86 3.86-13.53 7.43-27.17 10.9-40.81 3.38-13.34 7.26-26.54 10.73-39.84 3.76-14.44 8-28.75 11.33-43.28.64-2.89 3.26-5.6 1.45-8.94Z" style="fill:#f28e2f"/><path d="M361.18 593.8c-6.73.82-12.86-1.15-18.86-3.94-5.57-2.58-11.54-4.21-16.79-7.61-9.42-6.11-19.45-11.33-27.35-19.6-4.47-4.68-9.17-9.14-13.73-13.75-8.74-8.83-14.21-19.78-20-30.59a107.23 107.23 0 0 1-9.45-23.78c-1.12-4.41-1.75-9.42-2.92-13.73-2-7.45-.83-14.73-1.61-22-.5-4.65 1.21-6.43 5.78-5.74a3.42 3.42 0 0 0 3.25-.82c2.1-1.62 4.61-1.06 7-1.31-5 1-5.26 4.41-5 8.63a143.06 143.06 0 0 0 9 42.79A134.89 134.89 0 0 0 299.34 548a107.69 107.69 0 0 0 26.51 20.55 169.21 169.21 0 0 0 37.48 15.5c3.63 1 7.74.06 10.92 2.76-3.71 3.56-8.25 5.48-13.07 6.99Z" style="fill:#80be63"/><path d="M318.39 422.11c-2.06 4.75-2.07 10-3.37 14.95-1.34 5.14-.49 10.84-.61 16.3-.18 8.09 3 15.39 5.13 23a62.5 62.5 0 0 0 11.32 22.39c6.47 8 13.29 15.95 22.65 21 6.08 3.31 11.74 7.32 18.61 9.23a42.1 42.1 0 0 0 6.18 1c1.61 1.85 4.38.17 6 2 5 0 10-.27 14.95.09 15.55 1.12 29.4-3.83 42.92-10.86 5.89-3.06 9.34-9.29 15.88-11.25q.87.44.15 1.11a82.45 82.45 0 0 1-13.91 18c-1.3 1.66-2.47 3.47-4.68 4.11-7.32 3.09-14.2 7.59-22.12 8.79-11.14 1.68-22 4.68-33.8 2.13-11.09-2.39-22.24-4.06-32.08-9.9-9.54-5.64-18.59-11.76-25.64-20.87-4.28-5.53-8-11.36-11.85-17.1s-5-12.59-7-19.1c-3.7-12.22-1.53-24.76-2-37.15-.1-2.63 1.55-4.7 2.14-7.1 2.94-4.43 6.02-8.67 11.13-10.77Z" style="fill:#7dbb43"/><path d="M166.85 356.13c-.37-13.71-6.28-25.29-13.74-36.36a77.83 77.83 0 0 0-20.45-20.84c-.84-.58-2.36-.76-2.08-2.39-1.24-1.75-.76-3.32.24-5.06 4.5-7.9 8.9-15.86 13.52-23.67 6.06-10.23 11.15-21 18.34-30.6a13.62 13.62 0 0 0 2.7-6.86c.17-1.47-.36-3.53 2.08-3.88.08 7.81.22 15.62.23 23.43v106.25c-.26.49-.56.48-.84-.02Z" style="fill:#e873aa"/><path d="M149.63 32.8c-3.19 6-6.23 12-9.59 17.85Q125.88 75.39 111.51 100c-8.29 14.3-16.66 28.57-24.94 42.89-8.93 15.45-17.79 30.94-26.71 46.4-8.36 14.46-16.8 28.87-25.15 43.34-9 15.62-17.95 31.27-26.95 46.9-2 3.42-3.8 7-6.75 9.71v-13.93c1.81 0 2.46-1.35 3.23-2.69 19.85-34.43 39.83-68.79 59.57-103.29 17.1-29.9 34.24-59.78 51.68-89.48 9.51-16.13 18.14-32.75 28.17-48.56 1.29-2 .79-3.28-.65-4.76-1.84-1.9-3.55-3.91-5.33-5.87 5.65 2.4 8.47 7.59 11.95 12.14Z" style="fill:#9276b3"/><path d="M1 126.54c1.8 0 2.46-1.34 3.23-2.69q19.17-33.39 38.4-66.76 14.5-25.17 29.11-50.31c2.64-4.57 2.46-4.86-3-5.05A73.47 73.47 0 0 1 88.76.6c-2.39 7.26-7.23 13.25-10.83 19.84-3.1 5.68-6.84 11.22-10.06 16.89C61 49.45 53.73 61.35 47 73.52c-6.56 11.76-13.13 23.54-20 35.11-6.34 10.75-12 21.92-19 32.27-2.22 3.26-1.87 8.4-6.93 9.6Q1 138.51 1 126.54Z" style="fill:#6774b6"/><path d="M1 200.38v-17.93c3-1 4-3.91 5.29-6.23 9.44-17.25 19.46-34.16 29.4-51.12 11.79-20.1 23.09-40.45 34.7-60.63Q86.68 36.14 103.24 8c1-1.71 2-3.07.56-4.89 3.55-1 5.65 2.74 8.91 2.66 2.66 2.08 1 4.27-.07 6.17Q96 40.26 79.63 68.82C71 84 62.17 99 53.52 114.19c-8.4 14.72-16.82 29.43-25.51 44-7.58 12.68-14.38 25.81-22.39 38.29-1.08 1.68-1.78 4.13-4.62 3.9Z" style="fill:#7774b5"/><path d="M422.62 552.08c-5.18 5.26-10.42 10.45-17.06 13.92-7 2.4-14.29 1.9-21.23.82-10.59-1.64-21.23-3.47-31.35-7.47-11.41-4.51-22-10.47-30.81-18.9-7.29-7-15.17-13.46-20.63-22.24-7.5-12-13.42-24.57-16.78-38.51-2.4-10-1.16-19.83-1.66-29.74a7.24 7.24 0 0 1 1.22-4.25l11.12-5.59a4.77 4.77 0 0 1 .29 3c-2.32 7.47-1.17 14.83-.67 22.51 1.08 16.75 7.54 31.06 16 44.93a47.91 47.91 0 0 0 12.09 13.13c10.78 12.92 25 20.78 40.52 26a92.92 92.92 0 0 0 40.67 4.55c4.68-.56 9.46-1.47 14.15-2.5 1.38-.32 2.84-1.07 4.13.34Z" style="fill:#7dbc50"/><path class="cls-24" d="M158.61 408.1c.42 7.15-1.14 14.15-2.13 21.14-1.34 9.61-.38 19.2-.84 28.78-.82 17.14 1.54 34 5.28 50.59a238.66 238.66 0 0 0 12.8 39.39 253.11 253.11 0 0 0 15.22 29.92 222.85 222.85 0 0 0 15.47 22.71c4.42 5.79 9.9 10.54 14.1 16.43-2.34-.33-4.89.49-6.94-1.33-10.78.87-14.5-8.24-19.38-14.7-11.15-14.75-19.63-31.2-27.25-48a230.31 230.31 0 0 1-15.35-47.8c-5.1-24.35-4.62-49.09-4.31-73.8.05-3.51 2.25-6.1 3.4-9.13Z"/><path d="m128.65 440 10.08-7.77c1.91.88 1.84 2.52 1.7 4.24-.89 10.61-1.34 21.39-.05 31.82 1.05 8.46.81 17 2.86 25.5 1.81 7.48 2.7 15.26 4.34 22.86 2.14 9.94 5.65 19.47 9.16 28.94a261.07 261.07 0 0 0 26.56 51.68c2.09 3.2 5.14 5.69 6.66 9.28.7 1.65 2.07 3.08 1.63 5.09-6.1 0-11.46-2.72-17-4.63-25.5-37.56-41.14-78.79-46.06-124-1.39-12.74-1.34-25.54-1.17-38.33a6.88 6.88 0 0 1 1.29-4.68Z" style="fill:#80c7b0"/><path class="cls-26" d="M251.51 618.73c-4.35 0-8.74.57-13-.93-4.91-4.67-9.75-9.41-14.35-14.4a8.2 8.2 0 0 1-.76-1.27c-2.61-4.66-6.52-8.31-9.66-12.57a231.1 231.1 0 0 1-30.74-56c-5.7-15.2-8.94-30.85-11.74-46.69-.3-1.69-1.27-3.06-1.66-4.67 0-15.69-.7-31.36-.17-47.06.23-6.83 1.84-13.33 2.3-20 .21-3.08.63-7.21 5.66-6.9.24 3.82 5.53 4.81 5.05 9a366.71 366.71 0 0 0-2.67 40.6c-.07 23.54 4.41 46.09 12.05 68.18s19.15 42.3 33.38 60.86a220.19 220.19 0 0 0 23.36 25.78c1.66 1.49 4.32 2.91 2.95 6.07Z"/><path d="M48.89 290.34c-.13 2.45-2.41 2.07-3.73 2.46-3.84 1.16-6.57 4.22-10.25 5.55-1.84-2-2.09-2.71-.59-5.08 8.63-13.58 16.4-27.67 24.33-41.64 5.8-10.24 11.88-20.32 17.73-30.53C85 206 93.22 190.66 102.56 176c3.37-5.3 6.24-10.94 9.34-16.42 9.45-16.75 19.47-33.17 28.83-50 6-10.72 12.56-21.09 18.25-32 1.4-2.67 2.78-5.34 6-6.3 1.49.09 1 1.45 1.41 2.22l.38.92c.77 2.4.19 4.87.37 7.29-3.81 10.34-10.23 19.28-15.6 28.78-3.33 5.91-6.44 11.94-10.07 17.71-9.34 14.85-17.32 30.5-26.53 45.45-3.89 6.31-7.53 12.86-11 19.43-7.89 14.75-16.77 28.94-25 43.52-9 16-18.43 31.8-27.56 47.74a19.67 19.67 0 0 0-2.49 6Z" style="fill:#ab75b0"/><path d="M284.32 445.71c0 6.64.25 13.29.08 19.93s2.52 13 3.38 19.43c1 7.29 5.32 12.85 7.27 19.54 1.14 3.9 4.36 7.85 6.77 11.69 6.14 9.79 14.65 17.58 23.22 24.9a87.67 87.67 0 0 0 29.29 17c6.09 2 12.26 4.25 18.43 5.42 9.92 1.88 20.08 3.2 30.31 2.31a18.91 18.91 0 0 1 2.49.09c-2.9 4.07-7.45 6-11.33 8.86-8.78 1.94-16.93-1.77-25.39-2.64C357.48 571 348 565.66 338 561.16c-15.64-7.07-27.56-19.07-38.24-31.83-10.18-12.15-17-26.53-21.6-42-3.29-11.15-3.6-22.39-3.82-33.78-.06-2.73 1.93-3.61 3.06-5.29 2.04-1.63 4.6-1.9 6.92-2.55Z" style="fill:#7ebc55"/><path d="m206.48 439.13 8.19 4.6a6.34 6.34 0 0 1 .71 2.37c-1.94 23.86 2.92 46.71 10.33 69.16 6.38 19.32 16.62 36.44 29.43 52.22 4.41 5.44 9 10.61 13.87 15.62 10.36 10.73 22.79 18.7 35.17 26.77 2.23 1.46 5.07-.08 7 1.9-2.43 2.3-5.64 1.53-8.5 2.15-9.9 4.08-16.68-2.07-23.68-7.41a206.09 206.09 0 0 1-21.55-19.18c-16.19-16.65-28.31-35.9-38-56.9-7.05-15.25-11.05-31.39-13.69-47.73-2-12.19-3.7-24.63-2.46-37.13.28-2.44-.3-5.47 3.18-6.44Z" style="fill:#7ec080"/><path d="M1 200.38c6-6.9 10-15.06 14.46-22.88 7.41-12.84 15-25.61 22.32-38.46 13.25-23.13 26.33-46.35 39.66-69.43 11.27-19.52 22.79-38.9 34.22-58.33 1-1.75 2-3.46 1-5.55a13 13 0 0 1 7 3.19c.74 3.69-2.25 6-3.72 8.64-10.5 18.67-21.52 37-32.2 55.61-11.89 20.69-23.54 41.53-35.48 62.21-11.2 19.41-22.66 38.68-33.95 58-3.31 5.68-6.37 11.51-9.67 17.2-.87 1.5-1.45 3.46-3.62 3.78Z" style="fill:#7b75b5"/><path d="M118.69 580.92c.51-2.25-1.15-3.75-2-5.45-5.75-11.36-9.82-23.43-13.44-35.51-1.91-6.4-3.08-13.28-4.8-19.81-2.48-9.45-2-19.4-5.58-28.57a2.06 2.06 0 0 1-.09-1c1.3-12.9-3.41-25.49-2-38.39l-.12-.27c2.43-1.89 5.75.23 8.13-1.83l3.92.12c1.42 1.45 1.37 3.31 1.41 5.14.06 2.66.1 5.32 0 8-.41 12.3 2 24.3 3.56 36.42 2.49 19.37 7.81 37.93 14.31 56.22a212 212 0 0 0 12 27.33c1.1 2.11 2.77 4.37.57 6.85-5.3-3.04-11.19-5.12-15.87-9.25Z" style="fill:#80c9c7"/><path d="M191.59 611.64c-12.21-16.76-23.06-34.45-31.36-53.37a246.72 246.72 0 0 1-13.78-40.64c-2.51-10.28-3.48-20.81-6.16-31-.79-3 1.3-5.59.33-8.28-2.12-5.87-2.19-11.92-1.93-18 .36-8.6-.94-17.25.8-25.82.14-.69-.49-1.54-.76-2.31 4.12-2.54 6.51-6.79 10-10-4.21 18-1.81 36.26-1.61 54.35a64.85 64.85 0 0 0 3.08 20.12c1.5 4.36 1.07 9.25 2.26 13.95 2.07 8.18 4.26 16.31 7 24.28a234.06 234.06 0 0 0 19.2 41.83c5.92 10.3 12 20.51 19.71 29.76 3.87 4.62 7.27 8.37 13.29 9.16-7.02-.03-13.6-1.67-20.07-4.03Z" style="fill:#80c6aa"/><path d="M243.38 452.11c-4.34-.71-6.24.59-5.95 5.51 1.29 21.94 5.41 43 14.81 63.18a159.59 159.59 0 0 0 41.05 54.2c12.19 10.49 26.39 18.17 41.13 24.64a58 58 0 0 1 6.08 3.28c-3 1.27-5.84 2.9-9.22 2.88-1.64 1.05-3.16.41-4.69-.29-23.13-10.64-43.38-25.4-59.45-45a166.77 166.77 0 0 1-34.46-71c-2.38-11-3.18-22.31-3.42-33.6 0-2-.28-4 1.27-5.66 4.36.09 8.72.2 12.85 1.86Z" style="fill:#7ebf71"/><path d="M198.41 433.1c1 1 2.61 1.45 3.12 3a9.39 9.39 0 0 1 .07 4.44 54.22 54.22 0 0 0 0 28.93 7.64 7.64 0 0 1 .29 2.47c-.75 10.11 2.18 19.71 4.41 29.35a161 161 0 0 0 15.31 41.43 231.85 231.85 0 0 0 21.94 33.69c6.49 8.11 14 15.09 21 22.55 5.51 5.81 12.53 9.76 18.76 14.68 2.35 1.85 5.73-.13 8 2.12-4.58 2.6-9.73 1.36-14.58 2.15a5.11 5.11 0 0 1-3.16.24c-11.14-8.67-22-17.7-31.21-28.44A208.31 208.31 0 0 1 210.68 541a216.16 216.16 0 0 1-16.74-55.07c-2.74-16.43-.94-32.81-1.61-49.19-.08-2-.46-4.54 2.56-5.19a30.5 30.5 0 0 1 3.52 1.55Z" style="fill:#7fc188"/><path d="M128.65 440v19.94a264 264 0 0 0 29.63 117.21 242 242 0 0 0 14.42 24.33c1.14 1.68 2.1 3.39 1.81 5.53-3-.93-6.38-1.09-8.91-3.36-4.29-1.06-5.78-5.14-7.43-8.21-3-5.56-6.6-10.74-9.38-16.43a296.46 296.46 0 0 1-23.67-68c-2.1-9.72-2.82-19.64-4.35-29.39-1.64-10.5-1-20.85-1.47-31.26-.1-2.13-.21-4.36 1.37-6.16 2.85-1.1 4.39-4.6 7.98-4.2Z" style="fill:#81c7b5"/><path d="M291.3 615.77c-6.32 1.75-10.69-2.22-15.18-5.42-9.58-6.83-17.86-15.16-25.77-23.78a180.11 180.11 0 0 1-24.15-33.05c-3.61-6.37-7.54-12.6-10.27-19.36-3.67-9-7.29-18.1-9.71-27.7-1.84-7.28-2.36-14.95-5.47-21.91a2.31 2.31 0 0 1-.14-1c.56-12.68-3.48-25.11-2.06-37.85.38-3.43 2.38-6.29 3-9.61l4.95 3c-1.46 1.94-1.72 4.18-1.94 6.52-1.2 12.3.54 24.56 2.37 36.51a188.07 188.07 0 0 0 24.22 68.59A190 190 0 0 0 270 597.56c7 6.06 14.35 12 22.57 16.57 3.26 1.81 6.75-1.36 10.19-.21-3.65 1.85-7.59 1.59-11.46 1.85Z" style="fill:#7fc184"/><path d="M251.51 618.73a4.29 4.29 0 0 0-1.58-3c-8.7-8.8-17.92-17.14-25.19-27.24-7.69-10.66-15.28-21.36-21.48-33a227.81 227.81 0 0 1-18.11-46c-2.3-8.29-3.38-17-4.9-25.57-2.77-15.58-1.31-31.08-1.39-46.59 0-6.65.75-13.7 3.6-20.09 1 1.06 2.09 2.13 3.13 3.19.58 1.58 1.81 2.86 2.09 4.57-3.25 16.09-2.28 32.46-1.26 48.53 1.31 20.44 5.69 40.58 14.41 59.44 2.92 10 7.85 19.08 13.39 27.83a5.9 5.9 0 0 1 .84 1.08 11.73 11.73 0 0 0 3.84 5.83 6.07 6.07 0 0 1 .59 1.2c.37 2.19 2.21 3.32 3.48 4.86a6.57 6.57 0 0 1 .63 1.24c3.28 6.42 8 11.64 13.23 16.53a6.25 6.25 0 0 1 .66 1.22c.76 2.94 3.11 4.69 5.17 6.54 5 4.52 8.85 10.37 15 13.63a5.94 5.94 0 0 1 1.2.69c1.17 1.08 2.26 2.25 3.39 3.38l.4.56a1.08 1.08 0 0 1-.19 1.23Z" style="fill:#80c392"/><path d="M230.53 450.17c-.28 22 2.6 43.57 11 64a175.29 175.29 0 0 0 22.59 40.1 160.81 160.81 0 0 0 32.32 32 147.79 147.79 0 0 0 34.81 19.55c-2.5 2.19-5.77 2.2-8.73 3.09-5.27.68-9.06-2.75-13.1-5.06a180.3 180.3 0 0 1-44.22-35.94 157.65 157.65 0 0 1-17.2-23.77 174.73 174.73 0 0 1-24.56-72.05c-.72-6.43-.25-12.95-.14-19.43.05-3.32 1.41-5.1 5-3.59Z" style="fill:#7ebf75"/><path d="M110.72 448.17c1.63 0 2.13-2.4 4-1.86 2.26 2 2.27 4.69 2.34 7.35a343.45 343.45 0 0 0 4.9 51.5c5.38 30.22 16.16 58.49 30.77 85.38 1.56 2.86 3.9 5.51 2.92 9.19a40.35 40.35 0 0 1-11.12-4.53c-8.54-9.69-12.19-21.87-17.15-33.39-7-16.21-11.47-33.2-15.22-50.34-1.36-6.21-2.09-12.69-3.06-19-1.87-12.2-1.83-24.4-1.8-36.64.01-3.07.06-6.11 3.42-7.66Z" style="fill:#80c8bd"/><path d="M392.28 164.53a7.2 7.2 0 0 1 5 .93 2.64 2.64 0 0 1 .78 1.42c-.15 5.22-2 10.09-3.43 15-4.68 16.43-8.46 33.11-13.43 49.43-3.92 12.88-6.15 26.17-10.68 38.89-2.21 6.19-2.79 13-4.84 19.3-3.44 10.58-5.3 21.58-9 32.09-2.26 6.39-2.89 13.31-5 19.78-4.1 12.82-6.19 26.18-10.61 38.9a20.18 20.18 0 0 0-.84 6.85L330.48 398c-1-3 1.43-5.21 2.12-7.77 1.62-6 1.28-12.2 2.95-18.12.74-1.41-.08-3.1.78-4.5 7.21-24.73 13.38-49.74 20.18-74.58 6.19-22.6 12.14-45.27 18.4-67.86 4.84-17.45 9.43-35 13.94-52.52.73-2.83 1.09-5.91 3.43-8.12Z" style="fill:#f9c235"/><path d="M311.22 611.77c-8.09 2-13.16-4.16-18.65-7.79a149.86 149.86 0 0 1-31.75-27.35c-15.71-18.38-28.82-38.24-36.56-61.51a188.64 188.64 0 0 1-9.83-50.36c-.19-3.65-2-7.12-2.05-11-.07-3.69 2.91-6.4 2.29-10 2.08 2.39 5.37 1.94 7.87 3.34a39.06 39.06 0 0 0-2.22 21.44c1.89 10.41 3.24 20.95 6 31.25 3.95 14.59 10.08 28.14 17.19 41.36 9.35 17.36 22.19 31.94 36.7 45 9.52 8.57 20.3 15.56 31.51 21.85 2.26 1.27 5.11-.21 7 2-2.18 1.88-4.93 1.46-7.5 1.77Z" style="fill:#7ebf7b"/><path d="M318.72 610c-5.59 1.5-9.63-2.09-13.86-4.52-16.67-9.59-31.06-22.11-43.59-36.51-12.19-14-21.49-30-28.72-47.18a154.67 154.67 0 0 1-10.08-34.17c-1.29-7.6-3.1-15.15-3.75-22.8-.42-5 1.21-10.16.86-15.32-.14-2.1 1.31-2.41 3-2.39 1.55 1.77 4.17.43 5.79 2-2.68-.3-3.78.67-3.85 3.6a157.16 157.16 0 0 0 15.1 72.49 213.37 213.37 0 0 0 18 31.24 145.88 145.88 0 0 0 25.69 27.46c11.52 9.71 24 18.32 37.8 24.74a6.19 6.19 0 0 0 1.46.28c-1.08 1.08-2.57.52-3.85 1.08Z" style="fill:#7ebf77"/><path d="M44.45 10.5c2.25 2.54.17 4.73-.91 6.62-8.35 14.6-16.9 29.07-25.33 43.61-4.05 7-8 14-11.94 21.06C5 84 3.81 86.14 1 86.6.9 83.31.79 80 .68 76.72 2.46 51.52 14.53 32 34 16.66c3.16-2.45 6.22-5.4 10.45-6.16Z" style="fill:#5774b7"/><path class="cls-44" d="M294.44 442.08c.33-.66.67-1.31 1-2 1.06-1.16 3.15-.74 3.84-2.47l1-.88c1.66 1.43 1.19 3.27 1 5.09-1.06 12.29-1.17 24.49 2 36.58 3.49 13.18 9.75 24.67 18 35.6 9 11.87 20.54 19.78 33.42 26 15.39 7.39 31.81 9.77 48.94 7.93a108.64 108.64 0 0 0 21.84-4.51c1.74-.57 3.56-1 5.06.66a29.75 29.75 0 0 1-8 8c-9.42 1.89-18.72 4.14-28.49 3.95-8.69-.17-16.95-1.8-25.38-3.74a90.77 90.77 0 0 1-22.06-8.4c-9.41-4.94-18.37-10.65-24.3-19.94a93.52 93.52 0 0 1-18.3-25.82 90.25 90.25 0 0 1-9.16-33.89c-.41-6.07.05-12.21-.1-18.32.05-1.3.59-2.64-.31-3.84Z"/><path d="M502.08 358.22q.12 13.08.23 26.17l-.36 11.7c-1.52 2.56-1 5.53-1.68 8.25a71.38 71.38 0 0 1-3.84 20.75A21.46 21.46 0 0 0 496 430a15.63 15.63 0 0 0-1.73 3.19c-.84 8.19-4.18 15.66-7.05 23.22-1.35 3.59-1.46 7.9-4.88 10.57q-.48-.24-.42-.6c0-.26.09-.39.17-.39.64-11.88.31-23.75 0-35.63-2.26-5 .5-9.5 1.69-14 4.45-16.84 8.72-33.72 13.52-50.46.76-2.8.3-6.9 4.78-7.68Z" style="fill:#ec662c"/><path d="M110.72 448.17a12.92 12.92 0 0 0-2.06 7.86c.19 6 .31 12 0 17.92-.43 8.09 1.66 16 2.62 23.8s2.27 16.08 5 24c2.48 7.18 3.89 14.83 6.2 22.21s5.41 14.09 8 21.18c2.81 7.79 6.53 15.14 10 22.61 1.22 2.61 5 3.8 4.06 7.49l-9.94-5.05c-.07-5.88-4.06-10.21-6.31-15.17-4.6-10.16-8-20.7-11.87-31.13-3.06-8.36-5-17-7.14-25.48-1.26-5-1.77-10.69-3-15.73-1.7-7.32.1-15.06-3.35-22-.54-1.09-.23-2.62-.24-3.95v-26.45c2.95.21 4.97-2.99 8.03-2.11Z" style="fill:#81c9c2"/><path class="cls-47" d="M166.61 82.62c0-2.72.09-5.44.13-8.16.91 1.15.75 2.55.75 3.84q0 42.15-.06 84.29c-.72 2.8-.09 5.66-.36 8.48-6.86 11.6-13 23.64-20.51 34.84-2.22 3.29-3.37 7.16-5.24 10.66-5.16 5.52-7.26 12.88-11.53 19-4.91 7-8.72 14.75-12.91 22.2-3.72 6.61-8 12.94-11.2 19.83-1.12 2.38-2 4.93-4.32 6.55l-.69.24-5.92-.2c-1.37-1.53-.85-3 0-4.55 9.66-16.78 19.41-33.5 29.11-50.26l30-52c2.7-4.7 5.15-9.63 8.55-14a14 14 0 0 0 2.9-9.32c-.16-4.15 0-8.3-.17-12.46-.08-5-.06-10 0-15-.27-4 0-8 0-12-.3-6 0-11.91-.06-17.87.09-4.82-.59-9.61 1.53-14.11Z"/><path d="M155.65 599.73c-6.37-13.3-13.59-26.18-19.09-39.92a274.32 274.32 0 0 1-12.06-37.08c-2.54-10.43-4.3-21-6.27-31.49-.94-5.07-.79-10.21-1.29-15.29-.75-7.7-1.81-15.47-1.3-23.3.13-2.08-.59-4.22-.92-6.34 2.37.33 3.75-2.11 6-2.13a97.27 97.27 0 0 1-.06 10c-1.34 12.92 1.25 25.65 2.49 38.35a109.66 109.66 0 0 0 5.08 24.65c2.48 7.27 3.64 15.06 6.31 22.41 2.61 7.16 4.64 14.47 7.85 21.48 3.41 7.4 6 15.24 10.35 22.16s7.45 14.38 12.91 20.46c-3.65-.53-7.22-1.26-10-3.96Z" style="fill:#81c8b9"/><path class="cls-49" d="M177.41 408.14c-3.68 1.35-4.27 4.71-4.58 7.85s.34 6.54-1.71 9.47a4.38 4.38 0 0 0-.47 2.39c0 13.5-.47 27 .21 40.5.25 5-.31 9.78-.24 14.66 2.2 13.21 4.72 26.35 8.66 39.17a231.18 231.18 0 0 0 18.77 43.08c5.48 10 12 19.34 18.68 28.58 2.31 3.22 5.94 5.36 7.81 9 2.2 4.11 6.1 6.69 9.05 10.12 1.17 1.35 3.44 2.37 1.93 4.83-2.2.37-3.5-.72-5-2.33a251.24 251.24 0 0 1-47.05-71.6c-3.93-9-7.49-18.3-9.25-28.28-1.1-6.25-2.51-12.77-5.13-18.77a3.14 3.14 0 0 1-.37-1.43c.73-8.94-2.88-17.45-2.25-26.49.7-10.09.28-20.27.13-30.41a95.68 95.68 0 0 1 3.81-27.53c1-3.64-1.1-8.19 3.27-10.83 1.24 2.67 2.49 5.34 3.73 8.02Z"/><path d="M430.65 544.06c-6.35.28-12 3.33-18.22 4.3-16.57 2.6-32.9 2-48.91-3.36-10.62-3.55-19.93-9.24-28.9-16-13.47-10.17-22-23.48-28.68-38.63-6.39-14.59-6.92-29.81-6.5-45.27.07-2.81 1.54-5.46.88-8.35 6.56-5 11.93-11.32 17.92-17l.15 2.32a58.9 58.9 0 0 0-10 10c-4.84 4.62-4.6 10.56-4.72 16.62-.24 12 0 23.93 4.2 35.32 8.17 22.37 22.12 39.86 43.7 50.78 7.13 3.61 14.22 7.72 22.17 8.64 9.7 1.13 19.06 4.14 29.42 1.91 9.37-2 18.87-3.2 27.84-6.86a4.69 4.69 0 0 1 3.88 0 .88.88 0 0 1 .32 1.35Z" style="fill:#7dbb48"/><path d="M166.61 171.49c.44-3-.84-6.07.83-8.9q.62 20.46 0 40.93c-.73 2.49-.1 5-.38 7.54-5.9 9.59-10.88 19.73-17.15 29.07-3.54 5.25-6.23 11-9.31 16.4-5.45 9.66-11.6 18.91-16.76 28.73-1.15 2.2-1.5 4.76-3.13 6.72-1.78.31-2.3-2-4-1.89-2.56-2.28-1.78-4.77-.34-7.18 5.42-9.09 10.32-18.5 15.68-27.6s10.82-18.51 16.36-27.68c4.5-7.45 8.93-15 13-22.83 2.39-4.63 4.92-8.84 3.86-14.25-.13-3.42.05-6.83 0-10.25-.19-3.04-.27-6.07 1.34-8.81Z" style="fill:#d974ab"/><path d="M166.61 211.43c.41-2.62-.82-5.42.83-7.91v22.95c-.69 10.86-9.23 17.79-13.39 26.9a200.27 200.27 0 0 1-12.29 21.95c-3.63 5.86-5.33 13-10.67 17.88-.65.6-.37 2.2-.53 3.34-2.51.44-3.87-1.79-5.87-2.55-1.79-2-.55-3.79.39-5.47 6-10.84 12-21.74 18.7-32.18 3.41-5.3 6.3-10.93 9.26-16.43 4.96-9.23 12.17-17.53 13.57-28.48Z" style="fill:#e273aa"/><path d="M336.47 368.18c-.28 1.33.32 2.86-.92 4q0-91.48-.06-183v-88.74c0-2.47-.37-5 .47-7.4a61 61 0 0 0 8.1 28.36c.44.79.26 1.93.37 2.9a6.48 6.48 0 0 1 .91 6.1c-2.82 8.64-4.26 17.64-7 26.31-1.07 3.34-.49 6.9-.49 10.36 0 7.6-.1 15.2-.05 22.81.43 7.21-.24 14.42.08 21.62.2 10.58 0 21.16-.07 31.73.45 7-.28 14 .05 21 .25 6.68-.1 13.36-.05 20 .42 8-.15 16 .07 24 .19 9.65 0 19.3 0 29-.09 9.39.6 18.8-.55 28.17a5.5 5.5 0 0 1-.86 2.78Z" style="fill:#f7e649"/><path d="M166.85 356.13h.88c1.37 7.36.9 14.77.72 22.17h-1.64l.04-22.17Z" style="fill:#62b2db"/><path class="cls-26" d="M186.6 424.1a6.34 6.34 0 0 1-1-3.74l12.82 12.74c-1.09 0-2.21.1-2.95-1a19.89 19.89 0 0 1-8.87-8Z"/><path class="cls-44" d="M435.22 539.82v-.89c-1.16-4.37 2.68-5.14 5-7l4.09-3c-1.88 4.62-6.14 7.21-9.09 10.89Z"/><path class="cls-26" d="M262.47 618.72v-.91c3.63-2.42 7.29-1.77 11-.11l3.27.22c-4 1.45-8.09.87-12.17.92Z"/><path d="M500.27 404.34c.28-2.81-1.82-6.1 1.68-8.25a13.79 13.79 0 0 1-1.68 8.25Z" style="fill:#f29057"/><path class="cls-56" d="m166.36 73.54-.81-1.89a7.11 7.11 0 0 1-1.55-7.34l.52-.59c2.48 2.93 1.8 6.44 1.84 9.82Z"/><path d="m482.06 466 .24 1c-.35 1.92.4 4.29-2.12 5.35.51-2.16-1.34-5.01 1.88-6.35Z" style="fill:#e46f1b"/><path class="cls-56" d="M163.55 61.65c-.32-1.3-.63-2.59-1-3.89 2.75 1.3 1.43 3.93 1.94 6-1.49-.17-1.49-.98-.94-2.11Z"/><path d="m.8 346.32 2-.13c0 1.67.58 3.67-2 4.12.03-1.31.02-2.66 0-3.99Z" style="fill:#7072b4"/><path class="cls-59" d="M299.32 437.63c-.35 2.26-2 2.48-3.84 2.47.65-1.81 2.46-1.81 3.84-2.47Z"/><path d="m458.21 511-.15-1.11c.27-1.11.79-1.95 2.09-1.94.28 1.61-.75 2.39-1.94 3.05Z" style="fill:#9ac76b"/><path d="M494.24 433.2c-.16-1.46-.19-2.85 1.73-3.19.42 1.61-.58 2.44-1.73 3.19Z" style="fill:#f5a575"/><path d="M434.22 371.89c0-7.29 2.84-13.91 4.68-20.78 1.89-7 3.88-14.06 5.15-21.22.49-2.81 2-5.09 2.57-7.82a274.38 274.38 0 0 1 7.77-29c2.82-8.28 4.15-16.9 7-25.21a118.79 118.79 0 0 0 4.94-20.31c.84-5.54 3.84-10.6 4.62-16.29.92-6.74 3.62-13.05 5.45-19.55 2.37-8.38 3.6-17 6.87-25.25a80.84 80.84 0 0 0 4.73-18.81c.88-6.35 4.27-11.86 5-18.24.51-4.46 2.34-8.76 3.08-13.21.89-5.29 4.66-9.55 4.24-15.22l1.77.21v40.34c-3.57 10-5.64 20.46-8.4 30.7-6.15 22.76-12.41 45.48-18.41 68.28-5.7 21.67-11.58 43.3-17.18 65-3.82 14.78-8.22 29.42-12 44.22a10.17 10.17 0 0 1-3.85 6.23Z" style="fill:#f1892d"/><path d="M442.21 376c5.11-14.11 8.08-28.83 12.34-43.18 3.65-12.32 6.93-24.75 10.07-37.16 3.54-14 7.68-27.87 10.84-42 3-13.33 7.85-26.22 11.12-39.49 2.09-8.47 4.42-16.87 6.54-25.33 1.92-7.64 4-15.23 6.07-22.84.48-1.77 1-3.53 2.88-4.43v37.94c-3.3 13-7.17 25.82-10.34 38.83-2.87 11.74-6.4 23.3-9.33 35q-7.17 28.68-15.22 57.11c-3.62 12.75-6.21 25.78-10.51 38.33-1.54 4.51-1.47 9.55-4.52 13.55-3.98-1.09-6.26-4.81-9.94-6.33Z" style="fill:#f1832c"/><path d="M402.25 166.38c3.42.3 7-.31 10 2.06 1 1.22.47 2.5.18 3.79-3.84 17-9.12 33.61-13.3 50.5-3.55 14.34-7.42 28.6-11.46 42.79-3.86 13.55-7.09 27.26-10.95 40.81-3.94 13.86-7.94 27.76-11 41.89a137.79 137.79 0 0 1-4.57 15.78 13.63 13.63 0 0 0-.6 8.29 23.25 23.25 0 0 1-9.15 5.83c-1.41.44-1.9 1.58-3 2.07-3.55.88-3.16-1.73-2.64-3.47 3.11-10.56 5.17-21.38 8.53-31.9 2.68-8.41 4.15-17.24 6.64-25.76 4.16-14.19 7.08-28.72 11.77-42.76.42-1.26.17-2.65.42-4 3.6-9.55 5.33-19.61 8.06-29.39 2.28-8.22 4.69-16.41 6.65-24.72 2.15-9.09 5.3-17.89 7.29-27 1.21-5.6 2.34-11.32 4.66-16.58 1.11-2.52.59-5.27 1.9-7.63Z" style="fill:#f9bb35"/><path d="M488.19 132.55c2.17.25 2.25 2 1.87 3.37-2.2 8.21-4.25 16.49-7 24.51-1.12 3.22-1.48 6.6-2.41 9.81-2.09 7.23-3.95 14.54-6 21.8-1.68 5.81-2.53 12-4.5 17.76-3.8 11.09-5.48 22.73-9.32 33.87a134.81 134.81 0 0 0-4.74 19.7c-1 5.64-3.56 11-4.65 16.71-.75 3.91-2.1 7.72-3.15 11.58-1.68 6.2-3.32 12.4-5 18.6s-3.34 12.4-5 18.59q-3.37 12.57-6.77 25.13c-1.3 4.81-3.14 9.5-3.34 14.56-2.77-.29-5.63-.28-7.85-2.36-.46-5.77 2.4-10.83 3.62-16.22 4.38-19.39 10.25-38.4 15.32-57.61 4.15-15.69 8.4-31.36 12.63-47 3.79-14.06 7.29-28.23 11.26-42.24 3.66-12.93 6.52-26.05 10.49-38.9 2-6.41 4-12.9 4.59-19.66 2.15-4.95 7.67-7.12 9.95-12Z" style="fill:#f39231"/><path d="M360.55 372.28c-3.79-1.17-2.39-4-1.58-6.1 5.79-14.78 8.63-30.42 12.69-45.65 3.83-14.36 7.61-28.84 11.31-43.24 3.1-12 6.61-24.09 9.89-36.1 3.37-12.32 7.44-24.52 9.6-37.21 1.35-7.91 4.9-15.29 6.78-23.14 1-4.12.89-8.55 3-12.4l8 .09c2.28 4.28-.42 8.17-1.45 11.9-5.39 19.46-10.21 39.08-15.65 58.52-2.85 10.18-5.2 20.52-8.58 30.6-2.83 8.43-4.26 17.33-6.67 25.94-4.24 15.13-8.4 30.3-12.09 45.58-2 8.38-5.18 16.43-6.76 24.92a8.22 8.22 0 0 1-2.71 4.1c-1.89.84-3.33 2.84-5.78 2.19Z" style="fill:#fab634"/><path d="m434.25 166.58 1.94-.14a3.51 3.51 0 0 1 4-.33c2 2.49 1 5.11.1 7.55-3.28 8.41-4.2 17.45-7 25.93-3.45 10.44-5.59 21.18-8.53 31.72-4.65 16.62-8.66 33.42-13.47 50C407.61 294 404.86 307 401 319.7c-3.5 11.4-6.14 23.09-9.28 34.61-.92 3.36-1.42 6.83-3.39 9.8-3-.66-5 2.58-8 1.92-1.85-2.18-1.52-4.68-.79-7.09 5.93-19.51 10.62-39.34 15.88-59 4-15 8.51-29.95 12.3-45.05q4.6-18.31 9.72-36.47c3.51-12.44 5.8-25.22 10.24-37.39 1.43-3.89 1.51-8.19 3.62-11.87.55-1.36 1.99-1.69 2.95-2.58Z" style="fill:#f8aa31"/><path d="M388.3 364.11c1.08-9.21 4.68-17.81 6.68-26.76 3.36-15 7.75-29.64 11.67-44.41 3.29-12.39 6.73-24.8 10.07-37.18 4-14.93 7.75-30 11.95-44.85 3.54-12.51 5.36-25.52 10.45-37.58a13.84 13.84 0 0 0 1.09-6.82c.35-1 1.42-1.26 2-2l1.94-.07a3.51 3.51 0 0 1 4.05-.33c1.95 2.44 1.08 5 .34 7.58-7.59 26.36-14.41 52.92-21.41 79.44-4.11 15.57-8.59 31.07-12.73 46.64-5.63 21.2-11.59 42.32-16.84 63.62a5.59 5.59 0 0 1-1.31 2.64Z" style="fill:#f7a530"/><path d="M502.07 252.37v42.95c-4.87 21.83-11.49 43.2-17.12 64.82-4 15.36-7.41 30.93-12.78 45.92-3.31-3.52-5.29-7.93-8-11.83-2.84-5 .47-9.43 1.53-13.85 5.32-22.09 11.58-43.93 17.34-65.91 3.4-13 6.91-26 10.68-38.86 1.91-6.52 3.29-13.2 5.07-19.77.43-1.69 0-4.4 3.28-3.47Z" style="fill:#ee762e"/><path d="M478.16 144.53c1.1.13 2.28.76 1.85 1.82-2.42 5.85-2.84 12.21-4.87 18.13a178.69 178.69 0 0 0-5 18.61c-1.27 5.65-2.38 11.46-4.68 16.71-1.6 3.65-1.79 7.51-2.92 11.18-2.07 6.71-4.38 13.44-5.84 20.32a155.6 155.6 0 0 1-4.54 18.29c-3.81 11.1-5.49 22.74-9.33 33.89a144.32 144.32 0 0 0-4.73 19.72c-1.08 5.65-3.44 11-4.65 16.73a192.87 192.87 0 0 1-5.24 19c-2.87 9-3.74 18.62-7.93 27.25h-4.95a2.78 2.78 0 0 1-1.8-2.6c4.64-15.22 8.55-30.66 12.47-46.06 5.56-21.84 11.8-43.49 17.43-65.3 3.26-12.64 6.66-25.31 10.22-37.9 4-14.33 8.22-28.66 11.48-43.24 1.57-7 3.21-14.24 7-20.6 1.36-2.68 4.4-3.6 6.03-5.95Z" style="fill:#f49631"/><path d="M396.28 364c.53-9.5 4.06-18.31 6.36-27.4 1.78-7 3.69-14 5.58-21 2.45-9 5-18.07 7.39-27.12 2.25-8.41 4.08-17 6.69-25.26 4.15-13.21 6.49-26.88 10.91-40 2.14-6.39 3.24-13.12 5-19.64 2.82-10.49 5.61-21 8.79-31.36a24.17 24.17 0 0 0 1.2-7.76 1.26 1.26 0 0 1 .05-1.93c3.09 1 5.09-2.13 7.93-2.09 1.82 1.93.95 4 .35 6.08-5.42 19-10.29 38.13-15.4 57.2-3.39 12.64-7.08 25.25-10.36 37.92q-5.67 21.93-11.65 43.77c-3.36 12.31-5.65 24.93-10 37a86.07 86.07 0 0 0-3.49 14 14.92 14.92 0 0 1-3.32 7.66Z" style="fill:#f6a22f"/><path d="M432.22 168.5c-1.5 5.8-2.36 11.88-4.72 17.3-1.61 3.68-2 7.6-2.84 11.22-2.3 9.94-6.38 19.44-8 29.41-1.44 9-4.77 17.47-6.85 26.28-1.95 8.23-3.73 16.64-7 24.7-2.21 5.53-2.52 12-4.56 17.85-3.39 9.78-4.45 20.18-8 29.95s-4.36 20.21-8 29.93c-1.32 3.5-2.68 7-2 10.89l-3.88.21c-2.58 1.79-4.07 1.3-3.88-2 .14-2.31.07-4.73.89-6.91 5.48-14.64 8.25-30.06 12.45-45.06 3.79-13.54 7.49-27.14 11-40.79 3.41-13.32 7.27-26.55 10.69-39.87 3.79-14.77 8.11-29.4 11.78-44.21 1.63-6.57 2.31-13.83 7-19.43 2.07-.53 4.09-.97 5.92.53Z" style="fill:#f9ae31"/><path d="M502.07 252.37a2.05 2.05 0 0 0-1.92 1.9c-1.88 10-5 19.61-7.45 29.4-2.17 8.71-4.56 17.44-6.87 26.1-2.22 8.34-3.9 16.87-6.87 25.09a126.08 126.08 0 0 0-4.71 18.24c-1.31 6.64-3.57 13-5.52 19.4-.88 2.93-1.19 6.05-1.9 8.94-1 4.13-3.46 8.23-2.68 12.79a13.31 13.31 0 0 1-6-6.11c-1.9-2.53-1.48-5.34-.92-8.13 1.6-8 4.68-15.55 6.47-23.48 2.75-12.12 6.26-24.06 9.53-36 3.23-11.81 5.81-23.82 9.56-35.5 2.54-7.9 3.77-16.18 6.23-24.06 3.6-11.56 5.81-23.5 10-34.89.52-1.43 1-2.89 3-2.6Z" style="fill:#ef7b2d"/><path d="M402.28 364c2.09-8.39 3.68-16.94 6.43-25.11 2.29-6.82 3.62-13.84 5.31-20.76 1.51-6.19 4.17-12 5.13-18.38 1.43-9.5 5-18.51 7.36-27.83 2.08-8.34 4.09-16.76 7-24.94 2.07-5.77 2.81-12.08 4.56-18.07 2.92-10 5.42-20.19 8.11-30.3s5.34-20.14 8-30.21c.72-2.65 2.73-5 1.94-8 .35-2.58 2.4-1.76 3.94-2 4.61-.63 3.38 2.93 2.92 4.84-.84 3.54-1.59 7.12-2.62 10.63-4.67 15.89-8.63 32-13.1 47.92-3.62 12.92-6.32 26.08-10.52 38.86-2.89 8.8-4.42 18-7 26.93-4.32 15.12-8.18 30.37-12.34 45.53-2.8 10.2-4.81 20.65-8.6 30.58-.19.2-.39.39-.6.58Z" style="fill:#f59e2e"/><path d="M502.07 223.43c-3.44 2.17-2.24 6.24-3.57 9.31-3.76 8.69-5 18.26-7.87 27.35-2.63 8.21-4.16 16.94-6.45 25.37-2.74 10.12-5.35 20.28-8 30.42-2.65 10-4.9 20.08-8.11 29.88-2.8 8.57-4.12 17.5-7.31 26-1.8 4.82-3.74 10.58-2.53 16.32-2.76-1.16-4.25-3.64-6-5.81.59-6.7 3.1-12.92 4.83-19.33 1.76-6.56 3.46-13.14 5.2-19.7 1.61-6.11 3.44-12.16 4.79-18.33 1.42-6.5 3.71-12.73 5.39-19.15 2.21-8.45 3.86-17.05 6.88-25.31a110.19 110.19 0 0 0 4.62-18.34c1.09-6.14 3.6-11.79 4.86-17.86a195.25 195.25 0 0 1 5.36-20.65c2.33-7.23 4.11-14.65 6.13-22a3.28 3.28 0 0 1 1.86-2.19Z" style="fill:#f07e2c"/><path d="M426.22 168.56c-3.5 12.72-7.76 25.21-10.16 38.25-1 5.53-3.74 10.73-5.2 16.21-1 3.78-1.52 7.69-2.44 11.53-1.46 6.14-4.13 11.89-5 18.25-1.34 9.49-5.85 18.19-7.42 27.78a83.3 83.3 0 0 1-4.93 17c-2.42 6.12-3.09 12.92-4.78 19.36-1.55 5.9-3.25 11.79-5.27 17.55-1.15 3.29-1.26 6.77-2 10.08-1.39 6.53-4.82 12.39-5.31 19.25-.24 3.39.91 2.63 2.71 2.45-2.71 3-6.84 2.28-10.1 3.85 2.23-5.88 2.9-12.16 5.21-18.11 2.5-6.42 3.5-13.48 4.66-20.34.47-2.81 1.91-5.13 2.63-7.8 2-7.49 3.82-15 5.61-22.59 1.29-5.46 3.66-10.67 4.76-16.25.85-4.27 2.54-8.44 2.9-12.74.22-2.51 1.66-4.21 2.26-6.38 3.22-11.51 6.61-23 9.41-34.57 2.12-8.78 4.48-17.57 6.85-26.25 2.29-8.37 3.57-17 6.94-25.22a30.15 30.15 0 0 0 2.68-11.31l3.93-.1a1.45 1.45 0 0 1 2.06.1Z" style="fill:#f9b333"/><path d="M472.18 406.06c-.71-2.68-.07-5.16.85-7.7 3.21-8.8 5-18 7.21-27.07 1.36-5.57 3.46-10.94 4.76-16.56 2.13-9.26 4.44-18.5 7.25-27.56 3.29-10.61 4.91-21.74 9.83-31.85v36.94c-1.8 11.79-6.2 22.91-8.89 34.49-1.91 8.19-4.78 16.18-6.59 24.43-1.78 8.1-4.55 15.9-6.9 23.83a6.1 6.1 0 0 1-1.54 3.07c-3.16-3.4-3.55-8.23-5.98-12.02Z" style="fill:#ee702d"/><path d="M340.27 387.12c-1.77-2.48-1.57-4.6-.38-7.65 3.12-8 4.84-16.45 6.47-24.89 1-5.33 3.88-10.09 4.64-15.55 1.8-13 7.11-25.16 9.79-38 1.5-7.25 4.41-14.45 6.06-21.84 2.88-12.83 6.8-25.4 10-38.13 2.27-8.94 4.37-18.13 7.51-27 2.8-7.9 4-16.36 6.22-24.41 2.16-7.74 4.47-15.5 6.71-23.25a2.55 2.55 0 0 1 3.16 0c2.07 4.73-1.12 8.74-2.23 12.84q-6.51 24.15-12.92 48.32c-3.94 14.82-8.31 29.55-11.6 44.55-6 20.94-11.45 42-17.06 63.05-3.74 14-7.26 28.12-11.46 42-.54 1.79.2 3.67-.69 5.37-.49 2.33-2.83 3.03-4.22 4.59Z" style="fill:#f9c035"/><path d="M478.16 418.08c.37-6 2.91-11.52 4.33-17.29 1.68-6.78 4.38-13.38 5.39-20.23.91-6.23 3.86-11.69 4.87-17.91 1.56-9.56 5.94-18.53 7.48-28.2a3 3 0 0 1 1.85-2.19v26c-2.8 2.26-2.93 5.8-3.82 8.82-2.68 9.11-5.16 18.3-7.25 27.57-2 9-5.6 17.5-7 26.65-.45 3.05-2.4 5.83-2 9.11-2.65-3.7-3.1-8.06-3.85-12.33Z" style="fill:#ed6b2c"/><path class="cls-80" d="M344.52 382.5c-2.87-4.77.42-9.2 1.63-13.2 4.17-13.84 7.07-28 11.23-41.81 3.38-11.26 6.12-22.71 9.33-34 1.77-6.2 4.24-12.4 4.85-19a2.63 2.63 0 0 1 1.76-2.18q.49-.72 1 0c-.28 6.87-2.65 13.29-4.88 19.62-1.23 3.51-1.76 7.17-2.8 10.68-2.05 6.89-3.92 13.87-5.75 20.82-1.7 6.47-3.45 13.05-4.69 19.71-1.05 5.65-3.22 11.1-4.77 16.67-1 3.68-1 7.62-2.9 11.17-.9 1.67-.06 4.08-1.68 6-1.06 1.23-.59 2.9 1.55 3.2-.34 2.37-2.34 1.96-3.88 2.32Z"/><path d="m414.13 364.47 1.17 1.67c-2.39-.4-5.36 1.45-7-1.8l-.08-.41c2.09-1.24 4.1-1.45 5.91.54Z" style="fill:#a9ad24"/><path d="M384.31 531.92c-2-.63-5 1.62-6-2 2 .68 4.96-1.58 6 2Z" style="fill:#67b434"/><path d="M166.61 96.61v18c-7 13.54-15.37 26.33-22.68 39.69-8.12 14.84-17.11 29.16-25.22 44-8.41 15.41-17.87 30.26-26.53 45.55-7.68 13.55-15.4 27.08-23.41 40.45l.09.16c-1.13 1.15-3 .56-4.12 1.82l-5.78.14c-2.68 1-2.82-.62-2.51-2.51a13.83 13.83 0 0 1 1.85-4.07c9-16.83 19.27-33 28.56-49.65 8.64-15.52 17.91-30.69 26.56-46.21 8.08-14.5 16.74-28.67 25-43.06 7.7-13.38 15-27 23.31-40 1.18-1.87 1.81-4.56 4.88-4.31Z" style="fill:#b575af"/><path d="m163.55 61.65 1 2c.34 2.65.67 5.31 1 8C159 76.74 157 84.76 152.7 91.33c-7.59 11.64-13.8 24.11-21 36-3.8 6.31-7.28 12.91-11.07 19.25-6.45 10.8-12 22.1-19 32.62-4.05 6.13-7 13-10.87 19.23-6.67 10.69-12.09 22.07-19 32.61-4 6-7.08 12.53-10.66 18.78-5.69 10-11.2 20-17.26 29.72-3 4.73-4.66 10.2-8.62 14.38-.73.78-2.2 2.8-.33 4.39-2.45 4.72-8.35 5.56-11.15 10-1.39 2.18-4 3.42-5.1 5.94-1.68-.29-1.72-1-.9-2.4q12.57-21.45 25-43c11.33-19.69 22.54-39.45 33.86-59.14 8.27-14.37 16.67-28.67 25-43 8.8-15.21 17.53-30.46 26.34-45.67s17.86-30.66 26.75-46c1.58-2.73 2.88-5.63 4.45-8.35 1.14-1.95 1.8-4.37 4.41-5.04Z" style="fill:#a675b1"/><path d="M166.61 96.61c-3.61 2.86-5.43 7.11-7.66 10.85-10.08 17-19.48 34.31-29.64 51.23-9.4 15.65-17.68 32-27.14 47.6-10.41 17.16-19.62 35-30.49 51.9-5.06 7.86-9.15 16.36-13.6 24.6-.69 1.28-2.29 3.11.87 3.59-2.88 2.52-6.38 3.47-10.06 4-1-.24-2-.3-1.27-1.85 4.15-8.29 9-16.17 13.87-24 4.71-7.58 8.53-15.71 13.15-23.35 5.8-9.58 11.16-19.41 17-29 4.53-7.46 8.65-15.27 13-22.87 5.57-9.71 11.08-19.45 16.91-29 4.53-7.46 8.75-15.2 13-22.88 5.41-9.8 11.54-19.19 17.11-28.9 4.52-7.88 8.71-16 12.93-24 .51-1 .9-1.7 2-1.82Z" style="fill:#af75b0"/><path d="M166.6 126.55v16c-13 21.21-24.89 43-37.43 64.49q-17.8 30.46-35.17 61.2c-1.07 1.89-2.41 3.59-3.42 5.49-1.7 3.21-4.52 6.28-1.82 10.29l-14 .14c-.62-4.94 1.68-9.21 4.41-12.66 4.89-6.19 7.62-13.58 12.16-19.92 4.91-6.85 8.39-14.61 12.42-21.93 5.92-10.71 12.47-21 18.58-31.62 3.86-6.69 6.72-13.91 11.46-20.24 3.68-4.9 5.83-11 9.43-16.2 4.71-6.79 8-14.48 12.59-21.39 1.67-2.51 2.17-5.59 3.71-8.13s2.71-6.28 7.08-5.52Z" style="fill:#bf75ae"/><path d="M88.75 284c-3.48-3.08-2.91-5.25 1-11.74C99.54 256 109 239.44 118.57 223c4.68-8.06 9.29-16.16 14-24.23 8.29-14.34 16.58-28.68 24.61-43.16 2.52-4.55 4.33-10.19 9.47-13.07a13.2 13.2 0 0 0 0 2c2.25 12.62-4.24 22.16-10.73 31.94-4.84 7.29-8.5 15.33-13 22.87-5.78 9.77-11.29 19.68-17.16 29.41-4.5 7.46-8.74 15.19-13 22.87-5.39 9.79-11.37 19.26-17.22 28.79a7.24 7.24 0 0 0-.84 3.77Z" style="fill:#c675ae"/><path d="M166.6 126.55c-3 1.55-4.78 3.9-6.3 7.06-3.94 8.23-8.82 16-13.26 24-3.41 6.11-7.49 11.84-10.72 18.11s-6.87 12.83-10.8 19c-3.7 5.79-6.52 12.15-10.44 17.77-4.84 6.95-7.86 14.89-12.84 21.8-3.56 4.93-5.39 11-8.93 16.19-4.81 7-7.74 15.07-13.13 21.82-2.63 3.3-3.65 7.9-5.4 11.91l-6 .11c.57-5.69 4.64-9.69 7.14-14.42 4.16-7.87 8.76-15.51 13.25-23.2 6.59-11.27 13.34-22.45 19.83-33.78s12.6-22.81 19.1-34.11c6-10.43 12.42-20.63 18.47-31 5.89-10.14 11.55-20.41 17.31-30.62.64-1.14 1.07-2.51 2.74-2.53Z" style="fill:#ba75af"/><path d="M166.61 180.47v11c-5.41 9.29-11.22 18.34-16.53 27.68-8.67 15.23-17 30.66-26.14 45.63-4.65 7.62-9 15.4-13.21 23.27-2.09-.33-3.65-2.32-6-1.9a2 2 0 0 1-.48-2c6.86-11.62 13.09-23.6 20.28-35 1.32-2.1 2.28-4.39 3.4-6.59 3.58-4 5.63-9 7.88-13.8a7.66 7.66 0 0 1 .73-1.23c4.71-5.06 6.89-11.67 10.34-17.48 5.24-8.81 10.4-17.69 15.65-26.5.88-1.55 1.11-4.29 4.08-3.08Z" style="fill:#d274ac"/><path d="M110.72 288c-.41-2.63.73-4.72 2-6.92 7.07-11.91 13.79-24 21-35.82 8.94-14.6 16.13-30.23 26.14-44.2a22.51 22.51 0 0 0 2.61-5.87c.7-2.07 1.77-3.53 4.07-3.77 2.37 7.54-3.54 12.39-6.31 18a290.75 290.75 0 0 1-16.35 28.79c-5.5 8.59-9.95 17.75-15.37 26.32-3.76 5.94-6.06 12.71-10.69 18.11a6.83 6.83 0 0 0-1.17 7.38c-2.06-.26-3.59-2.29-5.93-2.02Z" style="fill:#d674ac"/><path d="M166.61 211.43c1 7.44-2.91 13-6.64 18.88-4.78 7.53-8.67 15.61-13.15 23.32-5.62 9.67-11.64 19.11-17.11 28.86-2 3.61-4.76 7.06-5 11.5-1.79.25-2.32-2-4-2-.78-5 2.29-9.28 4.63-12.67 5-7.27 9.08-15 13.38-22.6 7.36-13 15.79-25.49 22.45-39 1.19-2.38 3.59-4.2 5.44-6.29Z" style="fill:#dd74ab"/><path d="M76.8 451.92c-2.74-.45-6.07 1.76-8.1-1.82 2.69.62 6.09-1.85 8.1 1.82Z" style="fill:#4087c8"/><path d="M98.81 450.1c-2 3.54-5.38 1.38-8.13 1.83 2.03-3.67 5.42-1.22 8.13-1.83Z" style="fill:#3e85c6"/><path d="M64.73 286.25c.5-2.58 2.47-1.84 4.12-1.82-.53 2.57-2.5 1.76-4.12 1.82Z" style="fill:#7f72b3"/><path class="cls-24" d="M160.62 404.09c-.17 1.59.75 3.71-2 4 .2-1.56-.51-3.59 2-4Z"/><path class="cls-47" d="M104.73 284.31v1.82c-1.63 0-3.52.69-4.07-1.76l.14-.11c1.33-.59 2.64-1 3.93.05Z"/><path d="m414.13 364.47-5.93-.54c-.53-4.07 1.63-7.67 2.46-11.43 2.46-11.17 6.93-21.92 9.1-33.13 1.76-9.1 5.42-17.59 6.87-26.81.85-5.33 3.11-10.81 4.85-16.18a51.07 51.07 0 0 0 2.64-10.86c.57-6.41 4.22-11.88 4.94-18.25.51-4.47 2.5-8.76 3-13.22.32-2.9 1.82-5.21 2.6-7.82 2.25-7.61 3.71-15.37 5.66-23 1.35-5.31 3.76-10.32 4.62-15.82 1-6.71 4.46-12.82 5.23-19.61.16-1.42 1.14-2.4 1.47-3.61.58-2.07 1.89-4.6-1.53-5.7 3.5-3.44 8-5.39 12-8-1.47 5.79-2.26 11.88-4.66 17.26-1.65 3.69-2 7.61-2.85 11.23-2.43 10.06-6 19.78-8.22 29.85-2.48 11.36-5.52 22.63-8.66 33.75-3.42 12.08-6.06 24.35-9.67 36.38-2.91 9.72-5.17 19.65-8.12 29.33-2.53 8.31-3.7 17-7.15 25.13-2.31 5.46-3.06 11.84-4.35 17.83a80.11 80.11 0 0 1-4.3 13.22Z" style="fill:#f59a30"/><path d="M336.47 368.18v-31c3.14-8.87 6.12-17.82 7.81-27.07.56-3 2.21-5.51 2.74-8.45 2.09-11.38 5.74-22.36 8.63-33.54 1.69-6.53 3-13.21 5-19.64 1.74-5.69 4-11.31 5-17.13 2.09-12.07 6.26-23.59 9.36-35.36 2.26-8.57 3.28-17.56 6.94-25.83 1.29-2.9.59-6.58 2.36-9.54 2.72 1.19 5.6 2 8 3.89-1.92 7.49-3.83 15-5.78 22.46-2.4 9.24-4.78 18.48-7.25 27.7-2.12 8-4.38 15.88-6.52 23.84-2.52 9.38-4.91 18.78-7.47 28.14-2.31 8.43-4.87 16.78-7.15 25.21-2.14 7.94-3.8 16-6.14 23.89-3.65 12.31-6.26 24.9-10.07 37.18-1.34 4.3-3.06 8.7-3.55 13.31a1.93 1.93 0 0 1-1.91 1.94Z" style="fill:#f9c638"/><path d="M384.29 160.64c-.41 4.16.41 8.45-2.08 12.37a14.16 14.16 0 0 0-1.78 6.14c-.5 5.71-2.81 10.9-4.17 16.3-1.3 5.19-2.36 10.52-4 15.64-1.47 4.58-1.54 9.61-4.17 13.79-1.53 2.44.2 5-1.26 7.88-2.34 4.59-3.53 10-4.79 15.09-2.05 8.17-4 16.48-6.05 24.64-1 4.05-1.33 8.59-3.76 12.45-1.46 2.31-1.52 5.32-2 8.11-.74 4.58-1.13 9.41-3.94 13.32-1.86 2.58.15 5.34-1.49 8.34-2.45 4.51-2.65 10.13-4.83 15.12-1.09 2.49.27 6.05-3.54 7.37v-29c2.28-8.63 3.88-17.44 6.41-26 2.81-9.53 4.84-19.3 7.91-28.74 3.23-10 5-20.27 7.92-30.3 4.4-15.12 8.22-30.4 12.25-45.63 1.27-4.81 2.14-9.72 3.82-14.43.7-2 1.5-3.7 3.52-4.57 2.59-.86 4.02 1.47 6.03 2.11Z" style="fill:#f9cc3a"/><path d="M378.3 158.55c-3.35 6.22-4.37 13.14-6 19.88a157.81 157.81 0 0 1-4.59 16.8 132.6 132.6 0 0 0-5.05 19.71c-1.25 6.24-4.12 11.89-5.19 18.21a118 118 0 0 1-2.77 11.68c-1.87 6.67-4.83 13.11-5.77 19.94-1.26 9.06-5.09 17.35-6.88 26.27-1.16 5.76-1.09 12.35-5.57 17.2V284.3c2.31-8.94 4.37-18 6.69-26.9 2.13-8.16 4.73-16.2 6.67-24.42 2.89-12.22 6.25-24.35 9.62-36.43 2.74-9.86 4.64-20 8.34-29.6 1.6-4.13 1.15-9 4.52-12.46 2.68.42 3.82 2.96 5.98 4.06Z" style="fill:#f9d03c"/><path d="M336.48 243.37v-32c2.53-11.61 5.87-23 8.87-34.5 2.8-10.71 5.74-21.39 8.45-32.14a7.72 7.72 0 0 1 2.54-4.19 12.29 12.29 0 0 1 6 6 6.93 6.93 0 0 1 1 6.63c-3.72 12.53-7.07 25.17-10.41 37.8-3.76 14.23-7.85 28.37-11.22 42.7-.64 2.75-1.69 5.37-2.35 8.12-.36 1.32-1.1 2.55-2.88 1.58Z" style="fill:#f8da3f"/><path d="M372.32 154.49c-1.49 5.79-2.4 11.82-4.66 17.29-1.65 4-2.14 8.19-3 12.15-1.29 6-4.11 11.51-5.13 17.68a119.66 119.66 0 0 1-2.93 12.12c-1.86 6.65-4.43 13.12-5.73 19.92-1.15 6-2.81 12-4.47 17.89-2.85 10.24-5.43 20.55-8 30.86-.29 1.14-.78 1.75-1.9 1.9v-20c1.64-11.31 5.37-22.08 8.35-33 3.59-13.24 6.73-26.6 10.54-39.78 3.4-11.75 5.83-23.76 9.57-35.42.61-1.89.2-4.76 3.72-3.68 1.53.09 3.32-.26 3.64 2.07Z" style="fill:#f9d43d"/><path d="M368.65 152.39c-1.57.19-2.14 1.06-2.35 2.65-.91 7-4 13.52-5.5 20.37a172 172 0 0 1-4.46 17.79c-3.75 11.25-5.41 23.05-9.45 34.3-2 5.61-2.74 11.87-4.5 17.74-1.71 5.69-3.49 11.37-4.32 17.3-.09.65-1.05 1.18-1.6 1.77v-20.94c3.65-1.71 2.91-6 3.3-8.42 1.46-8.95 4.64-17.4 6.88-26.06 2.19-8.46 4-17.06 7-25.41 2.16-6 3.05-12.79 4.85-19.1 1.68-5.88 4-11.58 3.81-17.84a13.44 13.44 0 0 1 6.34 5.85Z" style="fill:#f9d63e"/><path d="M336.47 189.45c0-10.29-.67-20.63.14-30.85.51-6.52 3.73-12.8 4.68-19.34.74-5.09 4.48-9.5 3.17-14.95a48.94 48.94 0 0 1 8 12c.64 6.09-2.11 11.58-3.32 17.31-2.09 9.85-5.64 19.34-7.84 29.2-.57 2.46-.09 6.76-4.83 6.63Z" style="fill:#f6e142"/><path d="M336.47 189.45c3.19-1 3.2-4.72 3.4-6.35 1.1-9 4.64-17.37 6.78-26.06 1.7-6.91 2.51-14.19 5.79-20.71a5.84 5.84 0 0 1 3.89 4.23c-1.56 6.44-3.24 12.86-4.67 19.33-2.08 9.35-5.72 18.24-7.48 27.72-1.42 7.62-4.1 15-6.3 22.46-.15.54-.93.89-1.41 1.32Z" style="fill:#f8dd41"/><path d="m426.22 168.56-2.05-.12c2.74-4 6.76-1 10.08-1.86a1.86 1.86 0 0 1-2 1.92Z" style="fill:#f49935"/><path d="M442.24 164.52a1.92 1.92 0 0 1-2 2l-4-.07c1.07-3.45 3.96-1.36 6-1.93Z" style="fill:#f07f39"/><path d="m400.27 166.58-2.95-.19v-.93c2-1.37 3.8-2 5 .92l.06.3a1.67 1.67 0 0 1-2.11-.1Z" style="fill:#f0813c"/><path d="M448.24 162.53c0 .65 0 1.29-.05 1.93h-4c.42-2.61 2.44-1.82 4.05-1.93Z" style="fill:#f07e38"/><path d="M502 102.54c-.07 1.61.78 3.64-1.88 4 .17-1.54-.65-3.54 1.88-4Z" style="fill:#ef7b34"/><path d="M500.09 108.56c-.12 1.59.7 3.65-1.95 4 .15-1.56-.67-3.56 1.95-4Z" style="fill:#ee7336"/><path class="cls-49" d="M235.52 617.78c-1.28-4.39-5.47-6.33-8.14-9.55-1.35-1.64-3.21-2.9-2.84-5.4 5 4.71 10.71 8.68 14 15Z"/><path d="M440.21 531.94c-1.15 2.7-4.7 3.68-5 7-6.78.82-12.52 5-19.36 5.89-2.21.28-4.47 1.48-6.75 1-4.84-.93-8.91 2.44-13.62 2.07-16.34-1.28-32-4.55-46.53-12.83-21.05-12-35.06-29.44-42.81-52.32-4.75-14-3.6-28.38-3.64-42.71 0-3.95 3-6 5.92-8-3.58 10.59-1.51 21.54-2 32.32-.31 7.6 2.89 14.47 4.94 21.57 3.43 11.88 11.78 20.74 18.71 30.49 3.44 4.84 8.85 7.27 13.24 10.89a57.89 57.89 0 0 0 17 9.44c6.63 2.43 13.34 4.89 20.51 5.07 5.23.14 10 3.44 15.39 2 8.85-2.32 18.09-2 27-5.19 5.71-2.01 10.49-6.63 17-6.69Z" style="fill:#7dbb47"/><path class="cls-59" d="M294.44 442.08a36.56 36.56 0 0 1 1.89 16.49c-1.21 10.67 1.79 20.63 5.22 30.32 3.87 10.9 9.5 21 17.67 29.53 1.43 1.49 2.14 3.67 3.17 5.53-7.51-3.5-11.36-10.47-15.24-17.05-6.46-10.94-11.56-22.63-12.92-35.4-1.05-9.76-3.83-19.66.21-29.42Z"/><path class="cls-49" d="M224.54 602.83c-6.93-5.27-11.47-12.51-16.4-19.49-9-12.67-15.73-26.54-22.11-40.56a168.65 168.65 0 0 1-10-28.94c-2.09-8.33-3.21-16.86-5.71-25.05-.66-2.17.09-3.87.33-5.78 3.58 2.16 2.31 6.11 2.76 9.05a185.65 185.65 0 0 0 7.59 32.77c6.9 20 15.73 39.2 28.36 56.42 4.49 6.12 8.49 12.6 14 17.92a4.47 4.47 0 0 1 1.18 3.66Z"/><path d="m273.45 617.7-11 .11a17.37 17.37 0 0 0-4-4c-4-1.55-6.49-4.93-9.35-7.83-4.25-4.34-9-8.22-12.62-13.14v-1c-5.31-5.12-9.37-11.27-14-17v-1c-1.28-1.71-2.87-3.17-4-5v-1a24.14 24.14 0 0 1-4-6 183.69 183.69 0 0 1-14-27.95c-4.51-2.82-4-8.11-5.79-12.22A114 114 0 0 1 189 503c-.9-3.91-1.62-8-2.16-11.87-1.82-13.14-3.05-26.39-2.25-39.71.08-1.32 0-2.65 0-4 .12-7.81-.87-15.73 2-23.31a51.15 51.15 0 0 1 8.87 8c-2.17.31-1.87 2-1.87 3.45 0 13.78-1.24 27.71.3 41.32 2 17.64 5.81 35.11 12.9 51.64 3.07 7.16 5.91 14.42 9.71 21.23 12.74 22.85 27.8 43.78 49 59.77 2.97 2.28 5.3 5.48 7.95 8.18Z" style="fill:#80c28c"/><path class="cls-112" d="M200.58 533.94a227 227 0 0 1 14 27.95c-2-.36-3.06-1.82-3.86-3.47-2.84-5.83-5.33-11.86-8.56-17.47a13.35 13.35 0 0 1-1.58-7.01ZM236.52 592.85q6.9 6.64 13.8 13.29c2.7 2.58 5.45 5.12 8.17 7.68-1.66 0-3.13-.08-4.47-1.47-5.38-5.54-10.88-11-16.39-16.39a4 4 0 0 1-1.11-3.11ZM222.54 574.87c5.87 4.67 9.65 11 14 17-6.54-4.14-10.93-10.02-14-17ZM214.56 561.89a10.13 10.13 0 0 1 4 6c-3-.89-4.28-2.89-4-6ZM218.55 568.88c1.86 1.25 3.75 2.46 4 5-2.44-.78-4.05-2.23-4-5ZM258.49 613.82a4.14 4.14 0 0 1 4 4 5.22 5.22 0 0 1-4-4Z"/><path class="cls-113" d="M104.73 284.31c-1.31 0-2.63 1-3.92-.05 3.76-9.34 9.32-17.81 14.39-26.35 5.58-9.4 10.09-19.52 17-28.19a24.91 24.91 0 0 0 4.11-8.3c.75-2.57 2.47-3.75 4.4-5 2.21 2.53-.16 4.38-.87 6.55s-2.29 3.51-3.13 5.43c-3.33 4.27-4.82 9.6-8 14-.07 5-4 8-6.2 11.93-5.6 10.17-10.7 20.67-17.78 29.98Z"/><path class="cls-113" d="M136.67 228.4c0-4.44 4.62-7.34 4-12 1.46-5 4.15-9.25 6.72-13.73 3.78-6.6 8.24-12.86 11.38-19.89a35.08 35.08 0 0 1 7.84-11.31v9c-4.28 4.46-6.81 10-9.91 15.25-5.81 9.78-11.8 19.46-16.78 29.71-.6 1.23-2.14 1.99-3.25 2.97Z"/><path class="cls-80" d="m400.27 166.58 2 .1c.6 5.08-1.46 9.55-3.3 14-1.28 3.16-1.72 6.64-2.38 9.83-2.06 10-6.13 19.39-7.89 29.28-1.6 9-4.6 17.46-6.76 26.19s-3.39 18-7.67 26.3h-1c-.29-7.4 2.77-14.09 4.55-21 3.08-12 6-24.1 9.54-36 3.3-11.26 5.9-22.7 9.38-33.93 1.5-4.67 3.35-9.62 3.53-14.77Z"/><path class="cls-113" d="M128.69 242.38c1.94-5.07 2.95-10.68 8-14-1.76 5.2-3.24 10.54-8 14Z"/></g></g></svg>