<!-- Created with Inkscape (http://www.inkscape.org/) -->
<svg
   width="213.26675mm"
   height="89.87587mm"
   viewBox="0 0 213.26675 89.87587"
   sodipodi:docname="logo-adr-white.svg"
   xmlns:inkscape="http://www.inkscape.org/namespaces/inkscape"
   xmlns:sodipodi="http://sodipodi.sourceforge.net/DTD/sodipodi-0.dtd"
   xmlns="http://www.w3.org/2000/svg"
   xmlns:svg="http://www.w3.org/2000/svg">
  <sodipodi:namedview
     pagecolor="#ffffff"
     bordercolor="#666666"
     borderopacity="1.0"
     showgrid="false"
     fit-margin-top="0"
     fit-margin-left="0"
     fit-margin-right="0"
     fit-margin-bottom="0" />
  <defs id="defs1972" />
  <g
     transform="translate(-25.506453,-124.32689)">
    <g
       transform="translate(-5.25579,112.33955)"
       style="fill:#ffffff;stroke:#ffffff;stroke-opacity:1">
        <path
           style="opacity:1;fill:#ffffff;fill-opacity:1;stroke:#ffffff;stroke-width:0.264583px;stroke-linecap:butt;stroke-linejoin:miter;stroke-opacity:1"
           d="m 62.981718,13.626348 -0.161133,-0.652289 c 0,0 0.04884,-0.236031 -0.216241,-0.488434 -0.265077,-0.252403 -0.584004,-0.353135 -0.837764,-0.365387 -0.253761,-0.01225 -0.580366,0.18897 -0.580366,0.18897 l -0.216244,0.218477 c 0,0 -2.968795,2.961986 -4.710591,3.780017 -1.706873,0.80163 -1.830385,0.689957 -2.647919,0.693725 -0.840386,-0.09216 -1.241473,-0.305441 -1.798297,-0.29444 -0.537291,0.0106 -1.169801,0.296953 -1.169801,0.296953 0,0 -3.368356,1.21929 -5.265147,2.358038 -1.237362,0.742856 -2.375591,1.408483 -3.263164,2.15965 -0.887573,0.751165 -1.721203,1.660585 -2.089878,2.240015 -0.368675,0.57942 -0.567809,0.85507 -0.567809,0.85507 0,0 -3.28218,5.7734 -5.469533,8.13933 2.350245,-0.23946 6.234751,-2.45722 6.234751,-2.45722 0,0 -6.166679,10.02312 -5.761399,15.12843 0,0 0.611059,-1.38556 1.23258,-1.77983 0,0 -4.218814,9.2766 -4.624094,14.48864 -0.40528,5.21205 -0.01953,6.60356 0.243447,7.82716 0.262978,1.22359 1.226302,3.29095 1.226302,3.29095 0,0 0.170204,0.30889 -6.98e-4,0.81552 -0.170901,0.50664 -0.97867,4.28303 -1.024011,6.85013 -0.04534,2.5671 0.0872,5.82102 0.412255,7.23169 0.325061,1.41068 1.905961,7.99509 6.776751,11.54989 4.799181,3.50253 7.454077,3.96521 12.653654,4.815887 0,0 -3.318271,-1.366097 -3.295949,-3.034807 0,0 4.102296,2.19293 12.598423,3.920127 7.078095,1.43893 9.337477,-2.311577 9.337477,-2.311577 0,0 -5.365596,0.1061 -7.990497,-1.40315 0,0 -0.772194,-3.70147 -4.412038,-7.83808 -3.639844,-4.13661 -8.397869,-6.71501 -9.834833,-7.32022 l 1.719406,-0.81578 c 0,0 -4.59968,-1.09804 -7.155523,-3.26334 -2.555843,-2.1653 -3.103424,-2.93311 -3.802374,-4.76755 0,0 5.482785,0.53991 10.52332,-2.26136 l 9.968066,-0.0458 c 0,0 -0.310412,-2.20802 -5.200972,-3.35753 0,0 2.996495,-3.22139 2.922554,-7.76858 -0.07394,-4.5472 -1.106696,-8.62801 -1.461752,-9.57537 -0.355055,-0.94735 -1.301819,-3.53399 -1.301819,-3.53399 0,0 1.144128,1.25389 1.362463,1.46295 0,0 -1.229928,-1.85408 -1.990961,-5.51418 0,0 -1.226681,-4.6834 -1.062756,-7.2122 0.163926,-2.52881 0.591527,-3.66514 0.591527,-3.66514 0,0 1.662275,-1.94682 2.277519,-3.0436 0.615244,-1.09678 1.36773,-2.36488 1.733947,-3.28335 0.366216,-0.91848 0.615244,-1.90791 0.654307,-2.28522 0.03906,-0.37731 0.03767,-0.84314 0.431787,-1.36422 0.394118,-0.521077 1.018407,-1.341818 1.609957,-1.675611 0.667561,-0.376684 1.531329,-0.841585 2.01175,-1.096777 0.626405,-0.332737 2.140798,-1.414446 2.480507,-1.99391 0.339709,-0.579465 0.54807,-0.859717 -0.103447,-2.152996 -0.651516,-1.29328 -0.98574,-1.689681 -0.98574,-1.689681 z"
           sodipodi:nodetypes="cczzccscccszzcccccsscssssccsccsccsccccsscccscssssssssc" />
        <path
           style="fill:#ffffff;fill-opacity:1;stroke:#ffffff;stroke-width:0.323943px;stroke-linecap:butt;stroke-linejoin:miter;stroke-opacity:1"
           d="m 230.74503,90.974413 c 0.0663,-3.70379 -0.88595,-6.68953 -3.25182,-8.11059 -2.36587,-1.42106 -7.1167,1.97618 -8.75577,3.25664 -1.63908,1.28048 -1.0502,3.49785 -1.35754,5.80267 -0.30733,2.30485 -2.67897,4.44142 -3.80584,5.46579 -1.12686,1.02436 -1.43418,1.1524 -0.51221,2.816997 0.92197,1.66461 1.94641,1.15247 2.97082,1.28046 1.02442,0.12805 1.02442,-0.12804 2.76594,-1.536557 1.74152,-1.4085 4.2023,0.0256 6.96824,-1.63902 2.76592,-1.6646 4.16748,-3.177 4.16748,-3.177 0,0 -0.55691,0.0602 -0.8107,-0.18229 1.58989,-1.3031 1.6214,-3.9771 1.6214,-3.9771 z"
           sodipodi:nodetypes="cssssssszccc" />
        <path
           sodipodi:nodetypes="cccccccc"
           d="m 75.500293,51.915013 4.759325,-0.0429 6.99e-4,-7.54088 -0.480256,0.0962 -1.798468,5.53593 -0.636267,0.47335 -1.702824,0.004 z"
           style="fill:#ffffff;fill-opacity:1;stroke:#ffffff;stroke-width:0.264583px;stroke-linecap:butt;stroke-linejoin:miter;stroke-opacity:1" />
        <path
           sodipodi:nodetypes="scssssss"
           d="m 81.821647,36.713463 c 0,0 1.999194,-2.27767 1.587635,-3.30351 0,0 -1.353255,-0.18458 -1.358835,-1.37113 -0.0056,-1.18655 0.285997,-1.29704 0.708716,-1.55193 0.422718,-0.25489 0.817535,-0.13184 1.137015,0.0778 0.31948,0.20968 0.591527,0.4809 0.655702,1.31964 0.06418,0.83875 0.09207,1.78422 -0.401792,2.73221 -0.406101,0.77952 -0.948678,1.65991 -2.328441,2.09687 z"
           style="fill:#ffffff;fill-opacity:1;stroke:#ffffff;stroke-width:0.264583px;stroke-linecap:butt;stroke-linejoin:miter;stroke-opacity:1" />
        <path
           sodipodi:nodetypes="ccccccscscccccc"
           d="m 89.890121,49.803103 1.89521,2.09079 -6.123684,-8.1e-4 -0.167072,-0.35789 1.947806,-1.73263 4.30671,-28.086773 c 0,0 0.11022,-1.010766 0.57758,-1.078571 0.46736,-0.0678 1.60019,0.01257 1.60019,0.01257 0,0 0.47852,-0.139372 0.59153,0.714444 0.113,0.85381 4.56201,28.05914 4.56201,28.05914 l 2.033189,2.45996 -7.375289,0.0132 1.84315,-2.12547 -2.98831,-17.72907 z"
           style="fill:#ffffff;fill-opacity:1;stroke:#ffffff;stroke-width:0.264583px;stroke-linecap:butt;stroke-linejoin:miter;stroke-opacity:1" />
        <path
           d="m 95.227101,42.347963 -4.92334,0.0691 -0.44086,2.32539 5.53999,-0.1356 z"
           style="fill:#ffffff;fill-opacity:1;stroke:#ffffff;stroke-width:0.264583px;stroke-linecap:butt;stroke-linejoin:miter;stroke-opacity:1" />
        <g
           style="fill:#ffffff;stroke:#ffffff;stroke-opacity:1"
           transform="translate(-14.218739,-66.229389)">
          <path
             sodipodi:nodetypes="ccccccscscccccc"
             d="m 131.17986,116.51247 1.64306,1.62853 -5.30669,-6.8e-4 -0.16222,-0.36855 1.57423,-1.25035 3.86327,-24.532335 c 0,0 0.0955,-0.875916 0.50053,-0.934675 0.405,-0.05875 1.3867,0.01089 1.3867,0.01089 0,0 0.41468,-0.120777 0.51261,0.619127 0.0979,0.739904 4.04335,24.457533 4.04335,24.457533 l 1.67196,1.98989 -6.39132,0.0114 1.58887,-1.64414 -2.58125,-15.56152 z"
             style="fill:#ffffff;fill-opacity:1;stroke:#ffffff;stroke-width:0.229284px;stroke-linecap:butt;stroke-linejoin:miter;stroke-opacity:1" />
          <path
             d="m 135.80551,109.86863 -4.2665,0.0599 -0.38204,2.01515 4.80088,-0.11751 z"
             style="fill:#ffffff;fill-opacity:1;stroke:#ffffff;stroke-width:0.229284px;stroke-linecap:butt;stroke-linejoin:miter;stroke-opacity:1" />
        </g>
        <g
           style="fill:#ffffff;stroke:#ffffff;stroke-opacity:1"
           transform="translate(-14.218739,-66.229389)">
          <path
             style="fill:#ffffff;fill-opacity:1;stroke:#ffffff;stroke-width:0.332904px;stroke-linecap:butt;stroke-linejoin:miter;stroke-opacity:1"
             d="m 187.7154,91.091907 -0.49621,0.618956 1.91036,1.363887 0.0474,23.14618 -1.84851,1.88464 4.96273,-0.009 -0.0268,-27.006006 z"
             sodipodi:nodetypes="cccccccc" />
          <path
             style="fill:#ffffff;fill-opacity:1;stroke:#ffffff;stroke-width:0.264583px;stroke-linecap:butt;stroke-linejoin:miter;stroke-opacity:1"
             d="m 191.69612,91.056355 h 2.07969 l -2.04679,2.842225 z"
             sodipodi:nodetypes="cccc" />
          <path
             style="fill:#ffffff;fill-opacity:1;stroke:#ffffff;stroke-width:0.264583px;stroke-linecap:butt;stroke-linejoin:miter;stroke-opacity:1"
             d="m 192.40169,116.62646 1.67845,1.12448 -0.23151,0.37206 -1.57923,0.008 z"
             sodipodi:nodetypes="ccccc" />
        </g>
        <path
           sodipodi:nodetypes="cccccccc"
           d="m 155.23565,24.862813 -0.37229,0.62005 1.43328,1.36629 0.0356,23.18702 -1.38688,1.88797 3.72337,-0.009 -0.02,-27.05365 z"
           style="fill:#ffffff;fill-opacity:1;stroke:#ffffff;stroke-width:0.288609px;stroke-linecap:butt;stroke-linejoin:miter;stroke-opacity:1" />
        <g
           style="fill:#ffffff;stroke:#ffffff;stroke-opacity:1"
           transform="translate(-45.402958,-66.229389)">
          <path
             sodipodi:nodetypes="cccc"
             d="m 191.69612,91.056355 h 2.07969 l -2.04679,2.842225 z"
             style="fill:#ffffff;fill-opacity:1;stroke:#ffffff;stroke-width:0.264583px;stroke-linecap:butt;stroke-linejoin:miter;stroke-opacity:1" />
          <path
             sodipodi:nodetypes="ccccc"
             d="m 192.40169,116.62646 1.67845,1.12448 -0.23151,0.37206 -1.57923,0.008 z"
             style="fill:#ffffff;fill-opacity:1;stroke:#ffffff;stroke-width:0.264583px;stroke-linecap:butt;stroke-linejoin:miter;stroke-opacity:1" />
        </g>
        <path
           sodipodi:nodetypes="cccccccc"
           d="m 72.045112,31.137864 -0.381847,0.476304 1.470074,1.049548 0.03647,17.81162 -1.422479,1.450282 3.818957,-0.0069 -0.02062,-20.781861 z"
           style="fill:#ffffff;fill-opacity:1;stroke:#ffffff;stroke-width:0.256179px;stroke-linecap:butt;stroke-linejoin:miter;stroke-opacity:1" />
        <path
           sodipodi:nodetypes="cccc"
           d="m 75.108385,31.110506 h 1.600378 l -1.575061,2.18717 z"
           style="fill:#ffffff;fill-opacity:1;stroke:#ffffff;stroke-width:0.203604px;stroke-linecap:butt;stroke-linejoin:miter;stroke-opacity:1" />
        <path
           sodipodi:nodetypes="ccccc"
           d="m 75.65134,50.787403 1.291614,0.865318 -0.178154,0.28631 -1.215261,0.0062 z"
           style="fill:#ffffff;fill-opacity:1;stroke:#ffffff;stroke-width:0.203604px;stroke-linecap:butt;stroke-linejoin:miter;stroke-opacity:1" />
        <g
           style="fill:#ffffff;stroke:#ffffff;stroke-opacity:1"
           transform="translate(-14.218739,-66.229389)">
          <path
             transform="translate(-31.18422)"
             style="fill:#ffffff;fill-opacity:1;stroke:#ffffff;stroke-width:0.332904px;stroke-linecap:butt;stroke-linejoin:miter;stroke-opacity:1"
             d="m 187.7154,91.091907 -0.49621,0.618956 1.91036,1.363887 0.0474,23.14618 -1.84851,1.88464 4.96273,-0.009 -0.0268,-27.006006 z"
             sodipodi:nodetypes="cccccccc" />
          <path
             sodipodi:nodetypes="cccccccc"
             d="m 161.08834,118.10417 6.09502,-0.0352 8.6e-4,-9.13001 -0.58146,0.11645 -2.17749,6.70255 -0.77033,0.5731 -2.39443,-0.0115 z"
             style="fill:#ffffff;fill-opacity:1;stroke:#ffffff;stroke-width:0.32034px;stroke-linecap:butt;stroke-linejoin:miter;stroke-opacity:1" />
          <path
             style="fill:#ffffff;fill-opacity:1;stroke:#ffffff;stroke-width:0.320339px;stroke-linecap:butt;stroke-linejoin:miter;stroke-opacity:1"
             d="m 161.08838,91.085254 6.09502,0.0352 8.6e-4,9.130006 -0.58146,-0.11645 -2.17749,-6.702546 -0.77033,-0.5731 -2.39443,0.0115 z"
             sodipodi:nodetypes="cccccccc" />
          <path
             style="fill:#ffffff;fill-opacity:1;stroke:#ffffff;stroke-width:0.264583px;stroke-linecap:butt;stroke-linejoin:miter;stroke-opacity:1"
             d="m 160.86654,103.28672 h 1.22382 l 2.06693,-2.6293 v 7.4414 l -2.03387,-2.82773 h -1.40571 z"
             sodipodi:nodetypes="ccccccc" />
        </g>
        <path
           sodipodi:nodetypes="cccccccc"
           d="m 181.58542,24.862518 -0.49621,0.618956 1.91036,1.363887 0.0474,23.14618 -1.84851,1.88464 4.96273,-0.009 -0.0268,-27.006006 z"
           style="fill:#ffffff;fill-opacity:1;stroke:#ffffff;stroke-width:0.332904px;stroke-linecap:butt;stroke-linejoin:miter;stroke-opacity:1" />
        <path
           style="fill:#ffffff;fill-opacity:1;stroke:#ffffff;stroke-width:0.32034px;stroke-linecap:butt;stroke-linejoin:miter;stroke-opacity:1"
           d="m 186.14258,51.874781 6.09502,-0.0352 8.6e-4,-9.13001 -0.58146,0.11645 -2.17749,6.70255 -0.77033,0.5731 -2.39443,-0.0115 z"
           sodipodi:nodetypes="cccccccc" />
        <path
           sodipodi:nodetypes="cccccccc"
           d="m 186.14262,24.855865 6.09502,0.0352 8.6e-4,9.130006 -0.58146,-0.11645 -2.17749,-6.702546 -0.77033,-0.5731 -2.39443,0.0115 z"
           style="fill:#ffffff;fill-opacity:1;stroke:#ffffff;stroke-width:0.320339px;stroke-linecap:butt;stroke-linejoin:miter;stroke-opacity:1" />
        <path
           sodipodi:nodetypes="ccccccc"
           d="m 185.92078,37.057331 h 1.22382 l 2.06693,-2.6293 v 7.4414 l -2.03387,-2.82773 h -1.40571 z"
           style="fill:#ffffff;fill-opacity:1;stroke:#ffffff;stroke-width:0.264583px;stroke-linecap:butt;stroke-linejoin:miter;stroke-opacity:1" />
        <g
           transform="translate(-22.119626,-66.229389)"
           style="fill:#ffffff;stroke:#ffffff;stroke-opacity:1">
          <path
             style="fill:#ffffff;fill-opacity:1;stroke:#ffffff;stroke-width:0.332904px;stroke-linecap:butt;stroke-linejoin:miter;stroke-opacity:1"
             d="m 189.53951,91.090486 -1.10424,0.620377 0.69428,1.363887 0.0474,23.14618 -1.84851,1.88464 4.96273,-0.009 -0.0268,-27.006084 z"
             sodipodi:nodetypes="cccccccc" />
          <path
             style="fill:#ffffff;fill-opacity:1;stroke:#ffffff;stroke-width:0.264583px;stroke-linecap:butt;stroke-linejoin:miter;stroke-opacity:1"
             d="m 191.69612,91.056355 h 2.07969 l -2.04679,2.842225 z"
             sodipodi:nodetypes="cccc" />
          <path
             style="fill:#ffffff;fill-opacity:1;stroke:#ffffff;stroke-width:0.264583px;stroke-linecap:butt;stroke-linejoin:miter;stroke-opacity:1"
             d="m 192.40169,116.62646 1.67845,1.12448 -0.23151,0.37206 -1.57923,0.008 z"
             sodipodi:nodetypes="ccccc" />
        </g>
        <path
           style="fill:#ffffff;fill-opacity:1;stroke:#ffffff;stroke-width:0.229378px;stroke-linecap:butt;stroke-linejoin:miter;stroke-opacity:1"
           d="m 158.22225,24.8272 h 0.95185 l -0.92717,2.847239 z"
           sodipodi:nodetypes="cccc" />
        <path
           style="fill:#ffffff;fill-opacity:1;stroke:#ffffff;stroke-width:0.229378px;stroke-linecap:butt;stroke-linejoin:miter;stroke-opacity:1"
           d="m 158.75161,50.442421 1.25929,1.12646 -0.1737,0.37272 -1.18484,0.008 z"
           sodipodi:nodetypes="ccccc" />
        <path
           style="fill:#ffffff;fill-opacity:1;stroke:#ffffff;stroke-width:0.229284px;stroke-linecap:butt;stroke-linejoin:miter;stroke-opacity:1"
           d="m 165.64084,26.44218 c 0,0 0.1028,-1.6186 0.56692,-1.62853 0.46413,-0.01 3.09671,7.9e-4 3.09671,7.9e-4 l 0.16222,0.36843 -1.57423,1.25035 -3.86327,24.532341 c 0,0 -0.0955,0.87591 -0.50053,0.93467 -0.405,0.0587 -1.3867,-0.0109 -1.3867,-0.0109 0,0 -0.41468,0.12078 -0.51261,-0.61913 -0.0979,-0.7399 -4.04335,-24.457531 -4.04335,-24.457531 l -1.67196,-1.98989 c 0,0 2.89373,3.9e-4 3.7416,-0.004 0.84786,-0.004 1.06085,1.63646 1.06085,1.63646 l 2.58125,15.561521 z"
           sodipodi:nodetypes="czccccscscczccc" />
        <path
           d="m 146.13963,23.549783 0.35079,0.44434 5.98684,-2.034591 0.23386,-0.397563 -1.0056,-1.239465 c 0,0 -0.46772,-0.444333 -1.07576,0.02339 -0.60804,0.467723 -4.49013,3.203899 -4.49013,3.203899 z"
           style="fill:#ffffff;fill-opacity:1;stroke:#ffffff;stroke-width:0.264583px;stroke-linecap:butt;stroke-linejoin:miter;stroke-opacity:1" />
        <g
           style="fill:#ffffff;stroke:#ffffff;stroke-opacity:1"
           transform="translate(-40.230576,-30.08466)">
          <path
             transform="translate(-31.18422)"
             style="fill:#ffffff;fill-opacity:1;stroke:#ffffff;stroke-width:0.332904px;stroke-linecap:butt;stroke-linejoin:miter;stroke-opacity:1"
             d="m 187.7154,91.091907 -0.49621,0.618956 1.91036,1.363887 0.0474,23.14618 -1.84851,1.88464 4.96273,-0.009 -0.0268,-27.006006 z"
             sodipodi:nodetypes="cccccccc" />
          <path
             sodipodi:nodetypes="cccccccc"
             d="m 161.08834,118.10417 6.09502,-0.0352 8.6e-4,-9.13001 -0.58146,0.11645 -2.17749,6.70255 -0.77033,0.5731 -2.39443,-0.0115 z"
             style="fill:#ffffff;fill-opacity:1;stroke:#ffffff;stroke-width:0.32034px;stroke-linecap:butt;stroke-linejoin:miter;stroke-opacity:1" />
          <path
             style="fill:#ffffff;fill-opacity:1;stroke:#ffffff;stroke-width:0.320339px;stroke-linecap:butt;stroke-linejoin:miter;stroke-opacity:1"
             d="m 161.08838,91.085254 6.09502,0.0352 8.6e-4,9.130006 -0.58146,-0.11645 -2.17749,-6.702546 -0.77033,-0.5731 -2.39443,0.0115 z"
             sodipodi:nodetypes="cccccccc" />
          <path
             style="fill:#ffffff;fill-opacity:1;stroke:#ffffff;stroke-width:0.264583px;stroke-linecap:butt;stroke-linejoin:miter;stroke-opacity:1"
             d="m 160.86654,103.28672 h 1.22382 l 2.06693,-2.6293 v 7.4414 l -2.03387,-2.82773 h -1.40571 z"
             sodipodi:nodetypes="ccccccc" />
        </g>
        <path
           style="fill:#ffffff;fill-opacity:1;stroke:#ffffff;stroke-width:0.229284px;stroke-linecap:butt;stroke-linejoin:miter;stroke-opacity:1"
           d="m 146.31724,86.43606 1.64306,1.62853 -5.30669,-6.8e-4 -0.16222,-0.36855 1.57423,-1.25035 3.86327,-24.532335 c 0,0 0.0955,-0.875916 0.50053,-0.934675 0.405,-0.05875 1.3867,0.01089 1.3867,0.01089 0,0 0.41468,-0.120777 0.51261,0.619127 0.0979,0.739904 4.04335,24.457533 4.04335,24.457533 l 1.67196,1.98989 -6.39132,0.0114 1.58887,-1.64414 -2.58125,-15.56152 z"
           sodipodi:nodetypes="ccccccscscccccc" />
        <path
           style="fill:#ffffff;fill-opacity:1;stroke:#ffffff;stroke-width:0.229284px;stroke-linecap:butt;stroke-linejoin:miter;stroke-opacity:1"
           d="m 150.94289,79.79222 -4.2665,0.0599 -0.38204,2.01515 4.80088,-0.11751 z" />
        <g
           style="fill:#ffffff;stroke:#ffffff;stroke-opacity:1"
           transform="translate(-40.707474,1.524011)">
          <g
             transform="translate(-7.900887)"
             style="fill:#ffffff;stroke:#ffffff;stroke-opacity:1" />
          <g
             transform="translate(0.65481034,-31.617985)"
             style="fill:#ffffff;stroke:#ffffff;stroke-opacity:1">
            <path
               transform="translate(26.938632,-67.897054)"
               sodipodi:nodetypes="cccccccc"
               d="m 142.51575,158.98926 -0.37229,0.62004 1.43328,1.3663 0.0356,23.18701 -1.38688,1.88797 3.72337,-0.009 -0.02,-27.05365 z"
               style="fill:#ffffff;fill-opacity:1;stroke:#ffffff;stroke-width:0.28861px;stroke-linecap:butt;stroke-linejoin:miter;stroke-opacity:1" />
            <path
               style="fill:#ffffff;fill-opacity:1;stroke:#ffffff;stroke-width:0.229378px;stroke-linecap:butt;stroke-linejoin:miter;stroke-opacity:1"
               d="m 172.44099,91.056589 h 0.95185 l -0.92717,2.847239 z"
               sodipodi:nodetypes="cccc" />
            <path
               style="fill:#ffffff;fill-opacity:1;stroke:#ffffff;stroke-width:0.229378px;stroke-linecap:butt;stroke-linejoin:miter;stroke-opacity:1"
               d="m 172.97035,116.67181 1.25929,1.12646 -0.1737,0.37272 -1.18484,0.008 z"
               sodipodi:nodetypes="ccccc" />
            <path
               style="fill:#ffffff;fill-opacity:1;stroke:#ffffff;stroke-width:0.229284px;stroke-linecap:butt;stroke-linejoin:miter;stroke-opacity:1"
               d="m 178.17129,91.048209 h 2.32184 l -0.32741,26.193491 c 0,0 -0.0956,0.87591 -0.50066,0.93467 -0.405,0.0587 -1.3867,-0.0109 -1.3867,-0.0109 0,0 -0.35604,-0.0533 -0.51261,-0.61913 -0.0145,-0.0523 -5.96101,-24.504301 -5.96101,-24.504301 l -1.67196,-1.98989 c 0,0 2.89373,4.3e-4 3.7416,-0.004 0.84786,-0.004 1.06085,1.63642 1.06085,1.63642 l 3.23606,15.748611 z"
               sodipodi:nodetypes="cccscscczccc" />
            <g
               transform="matrix(0.9490176,0,0,-1.0026969,25.59809,210.86615)"
               style="fill:#ffffff;stroke:#ffffff;stroke-opacity:1">
              <path
                 sodipodi:nodetypes="cccccc"
                 d="m 160.80053,116.37704 0.0356,1.20019 -1.38688,1.88797 3.72337,-0.009 -0.02,-3.07916 z"
                 style="fill:#ffffff;fill-opacity:1;stroke:#ffffff;stroke-width:0.28861px;stroke-linecap:butt;stroke-linejoin:miter;stroke-opacity:1" />
              <path
                 style="fill:#ffffff;fill-opacity:1;stroke:#ffffff;stroke-width:0.229378px;stroke-linecap:butt;stroke-linejoin:miter;stroke-opacity:1"
                 d="m 163.25551,117.98349 1.25929,1.12646 -0.1737,0.37272 -1.18484,0.008 z"
                 sodipodi:nodetypes="ccccc" />
            </g>
          </g>
        </g>
        <g
           style="fill:#ffffff;stroke:#ffffff;stroke-opacity:1"
           transform="matrix(1.0961475,0,0,1.0298317,-11.74078,-71.295721)">
          <path
             sodipodi:nodetypes="cccccc"
             d="m 75.622944,134.13564 1.112462,1.51101 0.02665,19.06766 h 1.750493 l -0.01507,-20.57983 z"
             style="fill:#ffffff;fill-opacity:1;stroke:#ffffff;stroke-width:0.217878px;stroke-linecap:butt;stroke-linejoin:miter;stroke-opacity:1" />
          <path
             sodipodi:nodetypes="ccccc"
             d="m 78.574665,153.59403 0.943451,0.8569 -0.130131,0.28352 -0.887681,0.006 z"
             style="fill:#ffffff;fill-opacity:1;stroke:#ffffff;stroke-width:0.173164px;stroke-linecap:butt;stroke-linejoin:miter;stroke-opacity:1" />
        </g>
        <path
           sodipodi:nodetypes="ccccsssssssszscsssszzccc"
           d="m 112.67732,34.114143 -0.006,-9.31196 -0.51143,8.4e-4 -1.18196,1.00197 c 0,0 -0.48541,0.1743 -0.85046,-0.17077 -0.36504,-0.34507 -1.60816,-1.15668 -2.99139,-0.80105 -1.38322,0.35563 -2.45467,0.88556 -3.6169,3.62146 -1.16222,2.7359 -1.03198,9.50698 -1.03397,11.89253 -0.002,2.38555 0.5821,7.10207 1.47006,8.78516 0.88794,1.68309 2.21986,2.52464 2.91443,2.73942 0.69457,0.21479 3.3959,0.38556 4.44171,-1.63379 1.0458,-2.01936 1.25107,-5.02173 1.24509,-5.79574 -0.006,-0.8095 -0.0355,-1.33962 -0.0829,-1.37147 -0.0474,-0.0318 -0.54543,-0.0383 -0.59984,0.004 -0.06,0.0467 -0.0265,0.62613 -0.15786,1.92604 -0.16454,1.58103 -0.97872,3.23942 -1.32009,3.84153 -0.34137,0.60211 -1.44636,2.31512 -3.26172,0.46302 -1.81536,-1.8521 -1.20958,-15.65307 -1.12276,-17.40306 0.0868,-1.74999 0.2802,-3.71653 0.84454,-4.56335 0.56434,-0.84683 1.413,-1.05146 2.1177,-0.65939 0.70469,0.39206 1.61773,1.58933 2.07159,2.96757 0.45385,1.37825 0.90346,3.06664 0.98119,4.47925 0.13875,-0.006 0.61616,-0.0122 0.61616,-0.0122 z"
           style="fill:#ffffff;fill-opacity:1;stroke:#ffffff;stroke-width:0.263467px;stroke-linecap:butt;stroke-linejoin:miter;stroke-opacity:1" />
        <g
           transform="translate(-59.558168,-66.229389)"
           style="fill:#ffffff;stroke:#ffffff;stroke-opacity:1">
          <path
             sodipodi:nodetypes="cccccccc"
             d="m 187.7154,91.091907 -0.49621,0.618956 1.91036,1.363887 0.0474,23.14618 -1.84851,1.88464 4.96273,-0.009 -0.0268,-27.006006 z"
             style="fill:#ffffff;fill-opacity:1;stroke:#ffffff;stroke-width:0.332904px;stroke-linecap:butt;stroke-linejoin:miter;stroke-opacity:1" />
          <path
             sodipodi:nodetypes="cccc"
             d="m 191.69612,91.056355 h 2.07969 l -2.04679,2.842225 z"
             style="fill:#ffffff;fill-opacity:1;stroke:#ffffff;stroke-width:0.264583px;stroke-linecap:butt;stroke-linejoin:miter;stroke-opacity:1" />
          <path
             sodipodi:nodetypes="ccccc"
             d="m 192.40169,116.62646 1.67845,1.12448 -0.23151,0.37206 -1.57923,0.008 z"
             style="fill:#ffffff;fill-opacity:1;stroke:#ffffff;stroke-width:0.264583px;stroke-linecap:butt;stroke-linejoin:miter;stroke-opacity:1" />
        </g>
        <path
           sodipodi:nodetypes="ccccssssscsszscsssszzccc"
           d="m 129.7431,34.195581 0.006,-9.311944 0.51143,8.36e-4 1.18196,1.001974 c 0,0 0.48541,0.174294 0.85046,-0.170775 0.36504,-0.345067 1.60816,-1.15668 2.99139,-0.801051 1.38322,0.355633 2.45467,0.885561 3.6169,3.621454 1.16222,2.7359 1.03198,9.506986 1.03397,11.892536 0.002,2.38555 -0.5821,7.10207 -1.47006,8.78516 -0.88794,1.68309 -2.21109,2.46324 -2.90566,2.67803 -0.75304,-0.0571 -3.3959,0.38555 -4.44171,-1.63379 -1.0458,-2.01936 -1.25984,-4.96034 -1.25386,-5.73435 0.006,-0.8095 0.0355,-1.33962 0.0829,-1.37147 0.0474,-0.0318 0.54543,-0.0383 0.59984,0.004 0.06,0.0467 0.0265,0.62613 0.15786,1.92604 0.16454,1.58103 0.97872,3.23942 1.32009,3.84153 0.34137,0.60211 1.44636,2.31512 3.26172,0.46302 1.81536,-1.8521 1.20958,-15.653076 1.12276,-17.403066 -0.0868,-1.74999 -0.2802,-3.71652 -0.84454,-4.56334 -0.56434,-0.846832 -1.413,-1.051459 -2.1177,-0.659393 -0.70469,0.392063 -1.61773,1.589333 -2.07159,2.967573 -0.45385,1.37825 -0.90346,3.06664 -0.98119,4.479236 -0.13875,-0.006 -0.65124,-0.0122 -0.65124,-0.0122 z"
           style="fill:#ffffff;fill-opacity:1;stroke:#ffffff;stroke-width:0.263467px;stroke-linecap:butt;stroke-linejoin:miter;stroke-opacity:1" />
        <g
           transform="translate(-15.993317,-30.084659)"
           style="fill:#ffffff;stroke:#ffffff;stroke-opacity:1">
          <path
             style="fill:#ffffff;fill-opacity:1;stroke:#ffffff;stroke-width:0.332904px;stroke-linecap:butt;stroke-linejoin:miter;stroke-opacity:1"
             d="m 187.7154,91.091907 -0.49621,0.618956 1.91036,1.363887 0.0474,23.14618 -1.84851,1.88464 4.96273,-0.009 -0.0268,-27.006006 z"
             sodipodi:nodetypes="cccccccc" />
          <path
             style="fill:#ffffff;fill-opacity:1;stroke:#ffffff;stroke-width:0.264583px;stroke-linecap:butt;stroke-linejoin:miter;stroke-opacity:1"
             d="m 191.69612,91.056355 h 2.07969 l -2.04679,2.842225 z"
             sodipodi:nodetypes="cccc" />
          <path
             style="fill:#ffffff;fill-opacity:1;stroke:#ffffff;stroke-width:0.264583px;stroke-linecap:butt;stroke-linejoin:miter;stroke-opacity:1"
             d="m 192.40169,116.62646 1.67845,1.12448 -0.23151,0.37206 -1.57923,0.008 z"
             sodipodi:nodetypes="ccccc" />
        </g>
        <path
           style="fill:#ffffff;fill-opacity:1;stroke:#ffffff;stroke-width:0.263467px;stroke-linecap:butt;stroke-linejoin:miter;stroke-opacity:1"
           d="m 173.30795,70.340311 0.006,-9.311944 0.51143,8.36e-4 1.18196,1.001974 c 0,0 0.48541,0.174294 0.85046,-0.170775 0.36504,-0.345067 1.60816,-1.15668 2.99139,-0.801051 1.38322,0.355633 2.45467,0.885561 3.6169,3.621454 1.16222,2.7359 1.03198,9.506986 1.03397,11.892536 0.002,2.38555 -0.5821,7.10207 -1.47006,8.78516 -0.88794,1.68309 -2.21109,2.46324 -2.90566,2.67803 -0.75304,-0.0571 -3.3959,0.38555 -4.44171,-1.63379 -1.0458,-2.01936 -1.25984,-4.96034 -1.25386,-5.73435 0.006,-0.8095 0.0355,-1.33962 0.0829,-1.37147 0.0474,-0.0318 0.54543,-0.0383 0.59984,0.004 0.06,0.0467 0.0265,0.62613 0.15786,1.92604 0.16454,1.58103 0.97872,3.23942 1.32009,3.84153 0.34137,0.60211 1.44636,2.31512 3.26172,0.46302 1.81536,-1.8521 1.20958,-15.653076 1.12276,-17.403066 -0.0868,-1.74999 -0.2802,-3.71652 -0.84454,-4.56334 -0.56434,-0.846832 -1.413,-1.051459 -2.1177,-0.659393 -0.70469,0.392063 -1.61773,1.589333 -2.07159,2.967573 -0.45385,1.37825 -0.90346,3.06664 -0.98119,4.479236 -0.13875,-0.006 -0.65124,-0.0122 -0.65124,-0.0122 z"
           sodipodi:nodetypes="ccccssssscsszscsssszzccc" />
        <g
           transform="matrix(0.92873294,0,0,1.0005132,-1.4128461,-66.301616)"
           style="fill:#ffffff;stroke:#ffffff;stroke-opacity:1">
          <g
             transform="translate(-16.605797,36.144729)"
             style="fill:#ffffff;stroke:#ffffff;stroke-opacity:1">
            <path
               sodipodi:nodetypes="cccccccc"
               d="m 187.7154,91.091907 -0.49621,0.618956 1.91036,1.363887 0.0474,23.14613 -1.84851,1.88462 4.96273,-0.009 -0.0268,-27.006006 z"
               style="fill:#ffffff;fill-opacity:1;stroke:#ffffff;stroke-width:0.332904px;stroke-linecap:butt;stroke-linejoin:miter;stroke-opacity:1" />
            <path
               sodipodi:nodetypes="cccc"
               d="m 191.69612,91.056355 h 2.07969 l -2.04679,2.842225 z"
               style="fill:#ffffff;fill-opacity:1;stroke:#ffffff;stroke-width:0.264583px;stroke-linecap:butt;stroke-linejoin:miter;stroke-opacity:1" />
            <path
               sodipodi:nodetypes="ccccc"
               d="m 192.40169,116.62648 1.67845,1.12446 -0.23151,0.37206 -1.57923,0.008 z"
               style="fill:#ffffff;fill-opacity:1;stroke:#ffffff;stroke-width:0.264583px;stroke-linecap:butt;stroke-linejoin:miter;stroke-opacity:1" />
          </g>
          <path
             style="fill:#ffffff;fill-opacity:1;stroke:#ffffff;stroke-width:0.187808px;stroke-linecap:butt;stroke-linejoin:miter;stroke-opacity:1"
             d="m 172.92339,131.88885 0.006,-4.69664 0.51524,4.2e-4 1.19077,0.50537 c 0,0 0.48904,0.0879 0.85681,-0.0861 0.36776,-0.17404 1.62015,-0.58339 3.0137,-0.40403 1.39353,0.17937 2.47298,0.44665 3.64388,1.82654 1.17088,1.37989 1.03967,4.795 1.04168,5.9982 0.002,1.20319 -0.58645,3.58204 -1.48103,4.43093 -0.89456,0.8489 -2.22758,1.24238 -2.92733,1.35071 -0.75866,-0.0288 -3.42123,0.19446 -4.47484,-0.82403 -1.0536,-1.01849 -1.26923,-2.50183 -1.26321,-2.89221 0.006,-0.40828 0.0358,-0.67565 0.0835,-0.69173 0.0478,-0.0161 0.54951,-0.0193 0.60432,0.002 0.0604,0.0235 0.0266,0.3158 0.15904,0.97143 0.16577,0.79741 0.98601,1.35322 1.32994,1.65691 0.34391,0.30368 1.45715,1.16766 3.28605,0.23353 1.82889,-0.93414 1.2186,-6.84252 1.13112,-7.72515 -0.0875,-0.88264 -0.28228,-1.87449 -0.85083,-2.3016 -0.56855,-0.42711 -1.47031,-0.34323 -2.1335,-0.33257 -0.66319,0.0107 -1.62979,0.0299 -2.08704,0.725 -0.45723,0.69515 -0.9102,1.54671 -0.98851,2.25917 -0.13978,-0.003 -0.6561,-0.006 -0.6561,-0.006 z"
             sodipodi:nodetypes="ccccssssscsszscsssszzccc" />
        </g>
        <path
           style="fill:#ffffff;fill-opacity:1;stroke:#ffffff;stroke-width:0.255046px;stroke-linecap:butt;stroke-linejoin:miter;stroke-opacity:1"
           d="m 161.67658,75.233403 c 0,0 3.90948,-0.561559 3.86603,3.416122 -0.0435,3.97767 0,7.066214 0,7.557576 0,0.491362 0.60816,1.820674 1.67242,1.820674 h 3.19276 l -1.86788,-1.885587 -0.0217,-8.334975 c 0,0 -0.15203,-3.850295 -3.82262,-3.733305 l -3.67058,0.11699 z"
           sodipodi:nodetypes="cssscccscc" />
        <g
           transform="matrix(1.0876559,0,0,1.1504007,-86.746977,-89.447692)"
           style="fill:#ffffff;stroke:#ffffff;stroke-opacity:1">
          <g
             transform="translate(-16.605797,36.144729)"
             style="fill:#ffffff;stroke:#ffffff;stroke-opacity:1">
            <path
               style="fill:#ffffff;fill-opacity:1;stroke:#ffffff;stroke-width:0.332904px;stroke-linecap:butt;stroke-linejoin:miter;stroke-opacity:1"
               d="m 187.7154,91.091907 -0.49621,0.618956 1.91036,1.363887 0.0474,23.14613 -1.84851,1.88462 4.96273,-0.009 -0.0268,-27.006006 z"
               sodipodi:nodetypes="cccccccc" />
            <path
               style="fill:#ffffff;fill-opacity:1;stroke:#ffffff;stroke-width:0.264583px;stroke-linecap:butt;stroke-linejoin:miter;stroke-opacity:1"
               d="m 191.69612,91.056355 h 2.07969 l -2.04679,2.842225 z"
               sodipodi:nodetypes="cccc" />
            <path
               style="fill:#ffffff;fill-opacity:1;stroke:#ffffff;stroke-width:0.264583px;stroke-linecap:butt;stroke-linejoin:miter;stroke-opacity:1"
               d="m 192.40169,116.62648 1.67845,1.12446 -0.23151,0.37206 -1.57923,0.008 z"
               sodipodi:nodetypes="ccccc" />
          </g>
          <path
             sodipodi:nodetypes="ccccssssscsszscsssszzccc"
             d="m 172.92339,131.88885 0.006,-4.69664 0.51524,4.2e-4 1.19077,0.50537 c 0,0 0.48904,0.0879 0.85681,-0.0861 0.36776,-0.17404 1.62015,-0.58339 3.0137,-0.40403 1.39353,0.17937 2.47298,0.44665 3.64388,1.82654 1.17088,1.37989 1.03967,4.795 1.04168,5.9982 0.002,1.20319 -0.58645,3.58204 -1.48103,4.43093 -0.89456,0.8489 -2.22758,1.24238 -2.92733,1.35071 -0.75866,-0.0288 -3.42123,0.19446 -4.47484,-0.82403 -1.0536,-1.01849 -1.26923,-2.50183 -1.26321,-2.89221 0.006,-0.40828 0.0358,-0.67565 0.0835,-0.69173 0.0478,-0.0161 0.54951,-0.0193 0.60432,0.002 0.0604,0.0235 0.0266,0.3158 0.15904,0.97143 0.16577,0.79741 0.98601,1.35322 1.32994,1.65691 0.34391,0.30368 1.45715,1.16766 3.28605,0.23353 1.82889,-0.93414 1.2186,-6.84252 1.13112,-7.72515 -0.0875,-0.88264 -0.28228,-1.87449 -0.85083,-2.3016 -0.56855,-0.42711 -1.47031,-0.34323 -2.1335,-0.33257 -0.66319,0.0107 -1.62979,0.0299 -2.08704,0.725 -0.45723,0.69515 -0.9102,1.54671 -0.98851,2.25917 -0.13978,-0.003 -0.6561,-0.006 -0.6561,-0.006 z"
             style="fill:#ffffff;fill-opacity:1;stroke:#ffffff;stroke-width:0.187808px;stroke-linecap:butt;stroke-linejoin:miter;stroke-opacity:1" />
        </g>
        <path
           sodipodi:nodetypes="cssscccscc"
           d="m 104.24999,73.290775 c 0,0 4.57846,-0.645685 4.52758,3.927894 -0.0509,4.573567 0,8.124808 0,8.689781 0,0.564974 0.71223,2.093431 1.9586,2.093431 h 3.7391 l -2.18751,-2.168069 -0.0255,-9.583643 c 0,0 -0.17805,-4.42711 -4.47673,-4.292593 l -4.29869,0.134516 z"
           style="fill:#ffffff;fill-opacity:1;stroke:#ffffff;stroke-width:0.295959px;stroke-linecap:butt;stroke-linejoin:miter;stroke-opacity:1" />
        <g
           transform="translate(-14.218739,-66.229389)"
           style="fill:#ffffff;stroke:#ffffff;stroke-opacity:1">
          <path
             sodipodi:nodetypes="cccccczccc"
             d="m 208.83153,136.51269 -0.006,-9.31195 -0.51143,8.4e-4 -1.18196,1.00197 -0.85046,-0.17078 -1.1539,1.04531 c 0,0 1.61773,1.58933 2.07159,2.96758 0.45385,1.37825 0.90346,3.06664 0.98119,4.47924 0.13875,-0.006 0.65124,0.0112 0.65124,0.0112 z"
             style="fill:#ffffff;fill-opacity:1;stroke:#ffffff;stroke-width:0.263467px;stroke-linecap:butt;stroke-linejoin:miter;stroke-opacity:1" />
          <path
             style="fill:#ffffff;fill-opacity:1;stroke:#ffffff;stroke-width:0.263467px;stroke-linecap:butt;stroke-linejoin:miter;stroke-opacity:1"
             d="m 200.6649,144.95355 0.006,9.31195 0.51143,-8.4e-4 1.18196,-1.00197 0.85046,0.17078 1.1539,-1.04531 c 0,0 -1.61773,-1.58933 -2.07159,-2.96758 -0.45385,-1.37825 -0.90346,-3.06664 -0.98119,-4.47924 -0.21697,-0.005 -0.43454,-0.004 -0.65097,0.0122 z"
             sodipodi:nodetypes="cccccczcc" />
          <path
             style="fill:#ffffff;fill-opacity:1;stroke:#ffffff;stroke-width:0.264583px;stroke-linecap:butt;stroke-linejoin:miter;stroke-opacity:1"
             d="m 203.94864,151.98306 c 0.5476,0.68077 2.55848,1.77326 2.82323,-0.97212 0.26471,-2.74505 -1.71979,-5.82084 -2.11666,-6.54844 -0.39688,-0.72761 -2.8112,-5.52318 -3.14193,-6.18464 -0.33073,-0.66146 -1.85208,-4.72942 -1.62057,-7.54062 0.23151,-2.8112 3.50572,-5.1263 6.31692,-2.77813 2.8112,2.34818 1.57283,4.44617 0.75168,3.23382 -0.70503,-1.04091 -2.23996,-2.80387 -3.166,-2.34085 -0.92604,0.46302 -1.81901,1.38906 -0.46302,4.86172 1.35599,3.47266 3.24114,6.38307 3.77031,7.54063 0.52917,1.15755 2.57969,4.39869 2.51354,6.7138 -0.0661,2.3151 0.30167,5.40624 -2.96286,6.14921 -3.26967,0.74414 -5.73698,-2.41197 -5.73698,-2.41197 0,0 2.48473,-0.40318 3.03234,0.27759 z"
             sodipodi:nodetypes="zssssssssssscz" />
        </g>
        <g
           transform="matrix(0.6725968,0,0,0.58327639,-49.112948,-1.909275)"
           style="fill:#ffffff;stroke:#ffffff;stroke-opacity:1">
          <path
             style="fill:#ffffff;fill-opacity:1;stroke:#ffffff;stroke-width:0.263467px;stroke-linecap:butt;stroke-linejoin:miter;stroke-opacity:1"
             d="m 208.83153,136.51269 -0.006,-9.31195 -0.51143,8.4e-4 -1.18196,1.00197 -0.85046,-0.17078 -1.1539,1.04531 c 0,0 1.61773,1.58933 2.07159,2.96758 0.45385,1.37825 0.90346,3.06664 0.98119,4.47924 0.13875,-0.006 0.65124,0.0112 0.65124,0.0112 z"
             sodipodi:nodetypes="cccccczccc" />
          <path
             sodipodi:nodetypes="cccccczcc"
             d="m 200.6649,144.95355 0.006,9.31195 0.51143,-8.4e-4 1.18196,-1.00197 0.85046,0.17078 1.1539,-1.04531 c 0,0 -1.61773,-1.58933 -2.07159,-2.96758 -0.45385,-1.37825 -0.90346,-3.06664 -0.98119,-4.47924 -0.21697,-0.005 -0.43454,-0.004 -0.65097,0.0122 z"
             style="fill:#ffffff;fill-opacity:1;stroke:#ffffff;stroke-width:0.263467px;stroke-linecap:butt;stroke-linejoin:miter;stroke-opacity:1" />
          <path
             sodipodi:nodetypes="zssssssssssscz"
             d="m 203.94864,151.98306 c 0.5476,0.68077 2.55848,1.77326 2.82323,-0.97212 0.26471,-2.74505 -1.71979,-5.82084 -2.11666,-6.54844 -0.39688,-0.72761 -2.8112,-5.52318 -3.14193,-6.18464 -0.33073,-0.66146 -1.85208,-4.72942 -1.62057,-7.54062 0.23151,-2.8112 3.50572,-5.1263 6.31692,-2.77813 2.8112,2.34818 1.57283,4.44617 0.75168,3.23382 -0.70503,-1.04091 -2.23996,-2.80387 -3.166,-2.34085 -0.92604,0.46302 -1.81901,1.38906 -0.46302,4.86172 1.35599,3.47266 3.24114,6.38307 3.77031,7.54063 0.52917,1.15755 2.57969,4.39869 2.51354,6.7138 -0.0661,2.3151 0.30167,5.40624 -2.96286,6.14921 -3.26967,0.74414 -5.73698,-2.41197 -5.73698,-2.41197 0,0 2.48473,-0.40318 3.03234,0.27759 z"
             style="fill:#ffffff;fill-opacity:1;stroke:#ffffff;stroke-width:0.264583px;stroke-linecap:butt;stroke-linejoin:miter;stroke-opacity:1" />
        </g>
        <path
           style="fill:#ffffff;fill-opacity:1;stroke:#ffffff;stroke-width:0.166971px;stroke-linecap:butt;stroke-linejoin:miter;stroke-opacity:1"
           d="m 83.794033,78.665393 c 0,0 0.0021,-1.54127 -0.05846,-2.94291 -0.06058,-1.40164 -1.035362,-2.55254 -1.505354,-2.91713 -0.469993,-0.36459 -1.329122,-0.79184 -2.281248,-0.58432 -0.952119,0.2075 -1.689635,0.51671 -2.489639,2.11308 -0.799998,1.59635 -0.710349,5.5472 -0.711718,6.93913 -0.0014,1.39195 0.40068,4.14398 1.011894,5.12605 0.611201,0.98206 1.528008,1.47309 2.006105,1.59842 0.478096,0.12531 2.690659,0.27426 3.478357,-0.86018 0.357359,-0.51467 0.480831,-0.89433 0.59978,-1.34439 0.119591,-0.45251 0.115889,-1.02614 0.03648,-1.06801 -0.0794,-0.0418 -0.281888,-0.0456 -0.389502,0.0263 -0.04112,0.0275 -0.06492,0.39768 -0.132048,0.63487 -0.06712,0.23719 -0.322873,0.70268 -0.628019,1.01907 -0.293636,0.30447 -1.533487,1.17621 -2.783064,0.0956 -1.249576,-1.08067 -0.92614,-8.9112 -0.866378,-9.9323 0.05974,-1.02109 0.19287,-2.16854 0.581326,-2.66266 0.388455,-0.4941 0.727072,-0.49657 1.048431,-0.39644 0.32136,0.10014 0.786142,0.92738 0.806217,1.90695 0.02007,0.97957 0.05566,3.25668 0.05566,3.25668 z"
           sodipodi:nodetypes="czzssssssszszsssszzcc" />
        <path
           sodipodi:nodetypes="ccccc"
           d="m 78.460305,78.518863 h 5.275263 v 1.01732 h -5.275263 z"
           style="fill:#ffffff;fill-opacity:1;stroke:#ffffff;stroke-width:0.264583px;stroke-linecap:butt;stroke-linejoin:miter;stroke-opacity:1" />
        <path
           sodipodi:nodetypes="czsssssssczssszzcc"
           d="m 73.979008,75.722513 c -0.06058,-1.40164 -1.035362,-2.55254 -1.505353,-2.91713 -0.469993,-0.36459 -1.329123,-0.79184 -2.281248,-0.58432 -0.952119,0.2075 -1.689635,0.51671 -2.489639,2.11308 -0.799998,1.59635 -0.710349,5.5472 -0.711718,6.93913 -0.0014,1.39195 0.40068,4.14398 1.011894,5.12605 0.611201,0.98206 1.528008,1.47309 2.006104,1.59842 0.478096,0.12531 2.69066,0.27426 3.478357,-0.86018 0.35736,-0.51467 0.480831,-0.89433 0.59978,-1.34439 0.119592,-0.45251 0.139276,-1.16646 0.05987,-1.20833 -1.871964,-2.26418 -1.756282,-0.44664 -1.89225,0.41407 -0.135969,0.86071 -0.814193,2.5827 -2.06377,1.50209 -1.249576,-1.08067 -0.92614,-8.9112 -0.866378,-9.9323 0.05974,-1.02109 0.19287,-2.16854 0.581326,-2.66266 0.388455,-0.4941 0.727072,-0.49657 1.048431,-0.39644 0.32136,0.10014 1.201892,0.95442 1.398205,3.25326 0.196314,2.29883 1.773151,2.49903 1.626392,-1.04035 z"
           style="fill:#ffffff;fill-opacity:1;stroke:#ffffff;stroke-width:0.166971px;stroke-linecap:butt;stroke-linejoin:miter;stroke-opacity:1" />
        <path
           d="m 222.65797,41.401903 c -0.91566,-7.78005 -11.4576,-9.64137 -11.4576,-9.64137 0.92197,-0.34189 1.54224,-0.99189 1.54224,-0.99189 -11.98057,-5.27374 -14.40473,-14.594284 -14.40473,-14.594284 -2.60639,-1.871309 -8.18602,-1.420447 -8.18602,-1.420447 4.14039,-6.539534 21.86722,1.208872 21.86722,1.208872 0.77286,-1.85737 -3.25406,-3.054795 -3.25406,-3.054795 0,0 9.7405,0.288774 16.0209,7.927812 6.2804,7.639042 3.67243,20.275412 3.67243,20.275412 z"
           style="fill:#ffffff;fill-opacity:1;stroke:#ffffff;stroke-width:0.264583px;stroke-linecap:butt;stroke-linejoin:miter;stroke-opacity:1" />
        <path
           sodipodi:nodetypes="cccscczcsccc"
           d="m 231.47533,88.538983 c 0,0 2.33861,3.32082 2.61924,4.58367 l 0.14032,-0.74835 c 0,0 1.30962,1.49671 1.44994,2.80633 0.14031,1.30962 1.6838,1.44993 1.6838,1.44993 l 6.40778,0.0468 c 0,0 0.0898,-0.27781 0.11693,-0.65481 0.0272,-0.377 -0.11693,-0.65481 -0.11693,-0.65481 0,0 -1.02899,-1.96443 -3.36759,-1.96443 -2.33861,0 -4.5369,-6.45456 -4.5369,-6.45456 l -1.77735,-5.8933 z"
           style="fill:#ffffff;fill-opacity:1;stroke:#ffffff;stroke-width:0.264583px;stroke-linecap:butt;stroke-linejoin:miter;stroke-opacity:1" />
        <path
           style="fill:#ffffff;fill-opacity:1;stroke:#ffffff;stroke-width:0.264583px;stroke-linecap:butt;stroke-linejoin:miter;stroke-opacity:1"
           d="m 219.76475,88.539063 c 0,0 -2.33861,3.32082 -2.61924,4.58367 l -0.14032,-0.74835 c 0,0 -1.30962,1.49671 -1.44994,2.80633 -0.14031,1.30962 -1.6838,1.44993 -1.6838,1.44993 l -6.40778,0.0468 c 0,0 -0.0898,-0.27781 -0.11693,-0.65481 -0.0272,-0.377 0.11693,-0.65481 0.11693,-0.65481 0,0 1.02899,-1.96443 3.36759,-1.96443 2.33861,0 4.5369,-6.45456 4.5369,-6.45456 l 1.77735,-5.8933 z"
           sodipodi:nodetypes="cccscczcsccc" />
        <path
           sodipodi:nodetypes="cscccccccscc"
           d="m 223.47741,40.036973 c 0,0 -7.67064,2.3386 -9.82216,7.48354 -2.15152,5.14494 -0.56126,13.2833 2.05798,18.80241 0,0 -0.79513,-0.3274 -1.1693,-0.88866 0,0 3.92886,17.16538 2.52569,23.52639 l 17.44602,0.8419 -0.79512,-13.65747 c 0,0 2.05797,-6.26747 1.59025,-8.13835 0,0 -0.88867,1.77734 -1.49671,2.29183 0,0 4.34981,-12.67526 1.54348,-21.8426 -2.80633,-9.16734 -6.96905,-9.26088 -7.10937,-9.0738 z"
           style="fill:#ffffff;fill-opacity:1;stroke:#ffffff;stroke-width:0.264583px;stroke-linecap:butt;stroke-linejoin:miter;stroke-opacity:1" />
        <path
           sodipodi:nodetypes="cszcc"
           d="m 227.65422,85.414043 c 0,0 4.40085,-1.31015 6.43221,-1.24372 1.91795,0.0627 7.07578,-1.81556 4.7763,-0.50496 -2.29949,1.3106 -5.65985,9.15892 -12.90425,6.98385 z"
           style="fill:#ffffff;fill-opacity:1;stroke:#ffffff;stroke-width:0.284254px;stroke-linecap:butt;stroke-linejoin:miter;stroke-opacity:1" />
        <path
           sodipodi:nodetypes="cczcc"
           d="m 217.89754,88.784213 c 0,0 -4.54668,-4.34605 -4.75579,-6.984 0,0 0.61431,0.60828 1.10799,0.87468 0.49369,0.2664 8.95531,1.47011 8.95531,1.47011 z"
           style="fill:#ffffff;fill-opacity:1;stroke:#ffffff;stroke-width:0.275843px;stroke-linecap:butt;stroke-linejoin:miter;stroke-opacity:1" />
    </g>
  </g>
</svg>
